<svg width="440" height="435" viewBox="0 0 440 435" fill="none" xmlns="http://www.w3.org/2000/svg">
<path d="M369.265 83.4004H353.398V99.2671H369.265V83.4004Z" fill="#6874A7"/>
<path d="M362.181 81.4463H360.477V85.4307H362.181V81.4463Z" fill="#87394D"/>
<path d="M343.545 83.4004V115.63C343.545 117.07 342.973 118.45 341.955 119.468C340.937 120.486 339.557 121.058 338.117 121.058H310.219C311.609 120.99 312.92 120.39 313.88 119.381C314.84 118.373 315.375 117.033 315.375 115.641V83.4004H343.545Z" fill="#D6EAF2"/>
<path d="M329.447 81.4463H327.742V85.4307H329.447V81.4463Z" fill="#87394D"/>
<path d="M320.789 97.1602H337.473" stroke="#639AD6" stroke-width="1.11921" stroke-miterlimit="10"/>
<path d="M320.789 101.297H337.473" stroke="#639AD6" stroke-width="1.11921" stroke-miterlimit="10"/>
<path d="M320.789 105.431H337.473" stroke="#639AD6" stroke-width="1.11921" stroke-miterlimit="10"/>
<path d="M320.789 109.569H337.473" stroke="#639AD6" stroke-width="1.11921" stroke-miterlimit="10"/>
<path d="M320.789 113.706H337.473" stroke="#639AD6" stroke-width="1.11921" stroke-miterlimit="10"/>
<path d="M238.057 291.583L217.031 393.696H219.042L247.175 291.609" fill="#6874A7"/>
<path d="M312.614 289.175L334.055 393.698H332.107L304 291.566" fill="#6874A7"/>
<path d="M283.426 291.583L304.449 393.696H302.438L274.305 291.609" fill="#6874A7"/>
<path d="M335.575 241.433L322.891 279.131C321.603 282.958 319.146 286.284 315.866 288.639C312.586 290.994 308.648 292.26 304.61 292.256H232.787C228.749 292.259 224.812 290.994 221.532 288.639C218.252 286.284 215.795 282.958 214.506 279.131L204.06 248.122C203.638 246.867 203.521 245.53 203.718 244.221C203.915 242.912 204.42 241.669 205.193 240.594C205.965 239.519 206.982 238.643 208.16 238.039C209.338 237.435 210.642 237.12 211.966 237.12H220.005C221.844 237.128 223.622 236.469 225.012 235.266C226.402 234.063 227.309 232.397 227.564 230.576L232.25 197.317C232.79 193.475 234.701 189.957 237.629 187.412C240.558 184.866 244.307 183.465 248.187 183.465H312.855C315.158 183.465 317.433 183.959 319.528 184.914C321.624 185.868 323.49 187.261 325.001 188.999C326.511 190.736 327.632 192.777 328.287 194.984C328.942 197.192 329.116 199.514 328.797 201.794L324.775 230.49C324.659 231.314 324.721 232.154 324.958 232.952C325.194 233.749 325.598 234.487 326.144 235.116C326.689 235.744 327.363 236.248 328.12 236.594C328.877 236.939 329.699 237.119 330.531 237.12H332.471C332.991 237.119 333.503 237.241 333.966 237.478C334.428 237.714 334.828 238.057 335.131 238.479C335.435 238.9 335.633 239.388 335.71 239.902C335.788 240.416 335.741 240.94 335.575 241.433Z" fill="#6874A7"/>
<path d="M330.147 236.718H324.835C321.361 236.689 317.967 237.755 315.134 239.764C312.3 241.773 310.172 244.623 309.05 247.91L299.951 273.19C298.785 276.652 296.562 279.66 293.596 281.792C290.63 283.924 287.069 285.071 283.416 285.072H217.219" stroke="#87394D" stroke-width="1.11921" stroke-miterlimit="10"/>
<path d="M273.742 98.8086C290.086 99.1817 283.412 116.365 292.687 119.376C299.253 121.506 307.513 124.644 307.337 137.817C307.192 148.684 306.248 150.199 314.541 154.84C325.905 161.182 322.838 182.559 299.928 181.798" stroke="#242854" stroke-width="1.11921" stroke-miterlimit="10"/>
<path d="M248.838 111.176C249.238 110.087 252.569 95.6861 274.271 98.223C290.507 100.122 283.97 118.488 291.656 121.081C297.483 123.043 306.44 126.024 305.482 139.164C304.691 150.001 303.657 151.475 311.66 156.582C322.628 163.611 318.293 184.749 295.468 182.623C272.644 180.496 238.482 181.313 236.937 176.889C235.818 173.643 226.167 154.433 240.206 146.114C244.429 143.611 252.226 140.57 251.398 135.705C249.719 125.856 244.653 122.584 248.838 111.176Z" fill="#242854"/>
<path d="M276.117 131.406C276.117 131.406 274.912 146.993 281.154 151.772L264.164 151.466C264.164 151.466 264.563 134.204 264.164 131.414L276.117 131.406Z" fill="#FFB3A4"/>
<path d="M280.362 125.703C280.362 125.703 276.96 140.559 264.716 140.036C256.575 139.689 252.367 125.643 251.774 118.917C251.278 113.302 258.597 108.986 263.958 110.123C270.562 111.526 270.92 122.483 277.859 121.845L280.362 125.703Z" fill="#FFB3A4"/>
<path d="M260.533 119.872C257.713 120.591 254.965 121.57 252.325 122.796C251.913 121.408 251.629 119.984 251.478 118.543C251.105 114.44 254.914 111.041 259.078 109.94C259.514 110.082 259.966 110.239 260.44 110.414C262.592 111.209 259.16 115.328 260.533 119.872Z" fill="#EA786C"/>
<path d="M263.113 109.839C265.377 110.675 260.375 115.062 261.468 119.912C256.668 120.948 251.927 122.24 247.265 123.781C247.265 123.781 242.978 117.196 246.366 112.708C249.753 108.22 255.834 107.153 263.113 109.839Z" fill="#242854"/>
<path d="M277.959 126.423C280.231 126.423 282.074 124.581 282.074 122.308C282.074 120.036 280.231 118.193 277.959 118.193C275.686 118.193 273.844 120.036 273.844 122.308C273.844 124.581 275.686 126.423 277.959 126.423Z" fill="#FFB3A4"/>
<path d="M243.409 159.484C248.968 156.679 255.034 160.48 252.027 169.318C249.848 175.717 230.408 213.512 228.203 216.795C214.813 224.287 162.293 215.784 162.293 215.784C162.293 215.784 154.988 218.899 152.869 218.926C151.94 218.926 146.288 217.866 146.288 217.866C146.288 217.866 146.105 217.213 146.974 216.4C147.844 215.587 153.921 216.504 151.764 214.535C150.806 213.665 145.795 215.337 143.557 217.321C141.319 219.306 140.367 217.624 140.367 217.624C140.367 217.624 142.579 213.87 143.352 213.206C144.124 212.542 149.146 209.789 152.485 209.476C154.906 209.248 160.692 209.927 163.706 210.789C175.436 208.513 199.387 205.368 214.936 206.29C214.914 206.308 231.061 165.718 243.409 159.484Z" fill="#FFB3A4"/>
<path d="M280.323 146.277C280.323 146.277 283.904 152.81 303.565 159.559C303.565 159.559 303.494 168.012 300.304 179.13C295.257 196.724 288.739 221.324 288.836 231.013C288.836 231.013 267.635 237.12 245.765 231.013C245.765 231.013 245.929 201.66 244.068 200.331C242.206 199.003 237.397 186.692 238.99 180.585C240.583 174.478 246.925 158.529 246.925 158.529C246.925 158.529 259.905 154.645 261.016 146.941C267.454 147.535 273.941 147.312 280.323 146.277Z" fill="#3D4165"/>
<path d="M170.217 343.599C166.822 356.22 155.828 368.3 156.507 371.012C157.186 373.724 161.42 377.048 160.312 381.324C159.536 384.308 153.321 382.861 148.504 385.259C143.688 387.658 145.266 390.15 137.528 390.419C129.791 390.688 123.273 390.419 123.273 390.419C123.273 390.419 123.408 387.434 126.937 386.755C130.466 386.076 141.987 379.294 145.516 365.584C148.784 352.899 149.858 343.599 149.858 343.599H170.217Z" fill="#FFB3A4"/>
<path d="M245.933 227.436L240.389 233.002C238.352 233.543 183.119 251.051 175.654 261.228C168.189 271.406 143.898 345.363 143.898 345.363C143.898 345.363 154.21 352.604 179.187 349.877C179.187 349.877 193.431 320.129 195.468 279.277C195.468 279.277 258.573 283.624 267.803 268.421C277.032 253.218 269.172 230.286 269.172 230.286C269.172 230.286 252.925 229.566 245.933 227.436Z" fill="#242854"/>
<path d="M159.495 390.551H119.293C118.29 390.551 117.477 391.364 117.477 392.368V392.55C117.477 393.554 118.29 394.367 119.293 394.367H159.495C160.499 394.367 161.312 393.554 161.312 392.55V392.368C161.312 391.364 160.499 390.551 159.495 390.551Z" fill="#87394D"/>
<path d="M143.531 390.55C143.531 390.55 138.465 384.63 137.513 378.787C137.178 376.72 130.753 379.716 127.142 381.201C117.327 385.234 119.382 390.55 119.382 390.55H143.531Z" fill="#87394D"/>
<path d="M216.456 344.165C218.885 349.47 225.999 367.123 226.156 373.048C226.409 381.77 210.976 389.22 209.931 390.09C208.196 391.533 210.248 392.649 210.248 392.649C210.248 392.649 239.105 389.366 242.332 387.874C245.559 386.381 238.128 378.144 237.378 372.085C236.628 366.027 237.706 349.201 236.374 341.706L216.456 344.165Z" fill="#FFB3A4"/>
<path d="M237.103 352.79C232.697 354.234 226.94 355.816 221.434 356.401C219.527 351.294 217.531 346.515 216.453 344.165L236.394 341.706C236.89 344.467 237.054 348.5 237.103 352.79Z" fill="#FFB3A4"/>
<path d="M288.882 227.436C288.882 227.436 306.752 259.057 293.59 274.793C279.38 291.786 220.174 285.399 220.174 285.399C220.174 285.399 239.305 306.153 242.155 350.802C242.155 350.802 222.595 354.47 210.66 351.347C210.66 351.347 193.477 293.894 192.074 277.8C190.313 257.565 255.589 243.989 255.589 243.989L258.227 229.439C258.227 229.439 271.672 231.353 288.882 227.436Z" fill="#242854"/>
<path d="M244.531 387.99L204.631 392.91C203.635 393.033 202.928 393.94 203.05 394.936L203.073 395.117C203.196 396.113 204.103 396.821 205.098 396.698L244.998 391.778C245.994 391.655 246.702 390.748 246.579 389.752L246.557 389.571C246.434 388.575 245.527 387.867 244.531 387.99Z" fill="#87394D"/>
<path d="M228.661 389.957C228.661 389.957 224.931 381.003 215.85 382.122C206.77 383.241 204.695 392.915 204.695 392.915L228.661 389.957Z" fill="#87394D"/>
<path d="M318.516 220.573C308.335 227.031 258.824 206.93 258.824 206.93C258.824 206.93 255.84 211.224 252.546 211.224C249.251 211.224 246.203 209.94 244.487 211.269C242.771 212.597 240.98 214.753 239.667 214.943C238.093 215.201 236.479 215.053 234.978 214.514C234.978 214.514 236.097 212.522 237.272 210.604C236.224 211.31 234.799 212.88 234.004 213.496C233.694 213.757 233.305 213.907 232.9 213.923C232.494 213.938 232.095 213.818 231.766 213.582C231.766 213.582 234.064 210.399 234.952 209.556C235.84 208.713 238.361 207.62 239.958 207.034C241.712 206.355 251.855 202.393 256.862 201.811C262.175 201.192 305.44 205.441 305.44 205.441C305.44 205.441 295.587 180.893 294.949 174.532C294.009 165.15 297.997 159.453 302.783 159.445C311.304 159.412 326.958 215.219 318.516 220.573Z" fill="#FFB3A4"/>
<path d="M236.578 214.91C236.541 214.911 236.504 214.901 236.473 214.88C236.452 214.867 236.433 214.849 236.418 214.828C236.403 214.807 236.393 214.783 236.387 214.758C236.382 214.733 236.381 214.708 236.386 214.682C236.39 214.657 236.4 214.633 236.413 214.612C236.757 214.074 239.797 209.333 240.872 208.799C242.737 207.881 245.166 206.669 245.166 206.669L245.341 207.02L241.047 209.15C240.219 209.56 237.659 213.384 236.742 214.821C236.724 214.848 236.7 214.871 236.671 214.887C236.643 214.903 236.61 214.911 236.578 214.91Z" fill="#DB7800"/>
<path d="M238.709 214.909C238.674 214.909 238.639 214.899 238.609 214.881C238.579 214.863 238.555 214.837 238.538 214.806C238.522 214.775 238.514 214.74 238.516 214.705C238.518 214.67 238.529 214.636 238.549 214.607C238.668 214.428 241.515 210.272 242.604 209.735C244.469 208.813 246.898 207.604 246.898 207.604L247.073 207.951C247.073 207.951 244.641 209.164 242.779 210.082C241.947 210.492 239.675 213.645 238.869 214.827C238.851 214.853 238.827 214.873 238.799 214.888C238.771 214.902 238.74 214.909 238.709 214.909Z" fill="#DB7800"/>
<path d="M410.803 222.245H33.2969V230.337H410.803V222.245Z" fill="#161D56"/>
<path d="M400.351 366.377H353.344V372.051H400.351V366.377Z" fill="#161D56"/>
<path d="M393.81 230.604H359.812V238.126H393.81V230.604Z" fill="#161D56"/>
<path d="M406.969 394.361C406.161 394.361 405.379 394.078 404.758 393.562C404.137 393.045 403.717 392.327 403.57 391.533L377.593 250.199C377.56 250.016 377.463 249.851 377.32 249.732C377.177 249.613 376.997 249.548 376.812 249.548C376.626 249.548 376.446 249.613 376.303 249.732C376.16 249.851 376.063 250.016 376.03 250.199L350.049 391.533C349.903 392.327 349.483 393.046 348.862 393.562C348.241 394.079 347.459 394.362 346.651 394.361C346.144 394.361 345.644 394.249 345.185 394.035C344.726 393.82 344.321 393.507 343.996 393.118C343.672 392.729 343.437 392.273 343.309 391.783C343.18 391.293 343.161 390.781 343.252 390.283L371.27 237.861H382.35L410.367 390.283C410.459 390.781 410.441 391.294 410.312 391.784C410.184 392.274 409.949 392.73 409.625 393.119C409.3 393.508 408.894 393.821 408.435 394.036C407.976 394.251 407.475 394.361 406.969 394.361Z" fill="#161D56"/>
<path d="M90.8428 366.377H43.8359V372.051H90.8428V366.377Z" fill="#161D56"/>
<path d="M84.287 230.604H50.2891V238.126H84.287V230.604Z" fill="#161D56"/>
<path d="M97.446 394.361C96.6382 394.361 95.8559 394.078 95.235 393.562C94.6141 393.045 94.1938 392.327 94.0473 391.533L68.0667 250.202C68.0331 250.02 67.9365 249.854 67.7937 249.735C67.6509 249.616 67.4709 249.551 67.2851 249.551C67.0992 249.551 66.9192 249.616 66.7764 249.735C66.6336 249.854 66.5371 250.02 66.5035 250.202L40.5266 391.533C40.3801 392.327 39.9598 393.045 39.3389 393.562C38.718 394.078 37.9357 394.361 37.1279 394.361C36.6212 394.361 36.1206 394.251 35.6615 394.036C35.2025 393.821 34.7963 393.508 34.4719 393.119C34.1475 392.73 33.9128 392.274 33.7844 391.784C33.6561 391.294 33.6372 390.781 33.7293 390.283L61.7431 237.861H72.827L100.845 390.283C100.936 390.781 100.917 391.293 100.788 391.783C100.659 392.273 100.425 392.729 100.1 393.118C99.7761 393.507 99.3702 393.82 98.9115 394.035C98.4528 394.249 97.9525 394.361 97.446 394.361Z" fill="#161D56"/>
<path d="M138.288 154.548C140.273 154.548 141.646 152.616 141.646 150.583V139.196C141.647 138.671 141.544 138.151 141.343 137.666C141.143 137.18 140.848 136.739 140.477 136.367C140.106 135.996 139.666 135.701 139.181 135.499C138.696 135.298 138.176 135.194 137.651 135.193H111.726C111.2 135.193 110.68 135.297 110.195 135.498C109.709 135.699 109.268 135.994 108.897 136.366C108.525 136.738 108.231 137.179 108.03 137.665C107.829 138.15 107.726 138.671 107.727 139.196V150.583C107.727 151.643 108.148 152.66 108.898 153.41C109.648 154.16 110.665 154.582 111.726 154.582H126.921C130.652 154.582 132.644 160.551 132.644 160.551C132.644 160.551 133.92 154.548 138.288 154.548Z" fill="#87394D"/>
<path d="M117.266 146.28C118.09 146.28 118.758 145.612 118.758 144.788C118.758 143.964 118.09 143.296 117.266 143.296C116.442 143.296 115.773 143.964 115.773 144.788C115.773 145.612 116.442 146.28 117.266 146.28Z" fill="#242854"/>
<path d="M124.68 146.378C125.504 146.378 126.172 145.71 126.172 144.886C126.172 144.062 125.504 143.394 124.68 143.394C123.856 143.394 123.188 144.062 123.188 144.886C123.188 145.71 123.856 146.378 124.68 146.378Z" fill="#242854"/>
<path d="M132.102 146.378C132.926 146.378 133.594 145.71 133.594 144.886C133.594 144.062 132.926 143.394 132.102 143.394C131.277 143.394 130.609 144.062 130.609 144.886C130.609 145.71 131.277 146.378 132.102 146.378Z" fill="#242854"/>
<path d="M189.104 168.589H128.439C127.769 168.588 127.108 168.749 126.514 169.059C125.92 169.369 125.41 169.818 125.027 170.368C124.643 170.917 124.399 171.552 124.315 172.217C124.23 172.881 124.307 173.557 124.54 174.185L139.836 215.745H210.876L195.058 172.73C194.608 171.514 193.796 170.465 192.731 169.724C191.667 168.984 190.401 168.588 189.104 168.589Z" fill="#D6EAF2"/>
<path d="M187.92 170.697H128.766C128.114 170.697 127.472 170.855 126.894 171.157C126.316 171.458 125.819 171.895 125.446 172.43C125.073 172.965 124.835 173.582 124.752 174.228C124.669 174.875 124.743 175.532 124.968 176.144L139.891 216.671H209.152L193.729 174.749C193.291 173.561 192.499 172.535 191.461 171.811C190.422 171.086 189.186 170.698 187.92 170.697Z" fill="#161D56"/>
<path d="M139.695 215.734H256.063C256.844 215.734 257.618 215.888 258.339 216.187C259.061 216.486 259.716 216.924 260.268 217.476C260.821 218.028 261.259 218.684 261.557 219.405C261.856 220.127 262.01 220.9 262.01 221.681V221.842H145.642C144.065 221.842 142.552 221.215 141.437 220.1C140.322 218.985 139.695 217.472 139.695 215.895V215.734Z" fill="#D6EAF2"/>
<path d="M170.43 198.542C172.603 196.128 171.95 191.998 168.972 189.317C165.994 186.635 161.818 186.418 159.645 188.831C157.472 191.244 158.125 195.374 161.103 198.056C164.082 200.737 168.257 200.955 170.43 198.542Z" fill="#D6EAF2"/>
<path d="M225.896 217.921H220.938V219.7H225.896V217.921Z" fill="#D6EAF2"/>
<path d="M235.372 217.921H230.414V219.7H235.372V217.921Z" fill="#D6EAF2"/>
<path d="M353.91 205.132H351.993V201.248H334.492V218.924C334.492 219.36 334.577 219.792 334.744 220.195C334.911 220.598 335.155 220.965 335.464 221.273C335.772 221.581 336.138 221.826 336.541 221.993C336.944 222.159 337.376 222.245 337.813 222.244H348.673C349.553 222.244 350.398 221.895 351.02 221.272C351.643 220.649 351.993 219.805 351.993 218.924V212.899H353.91C354.941 212.899 355.928 212.49 356.657 211.762C357.385 211.033 357.794 210.045 357.794 209.015C357.794 207.985 357.385 206.998 356.657 206.269C355.928 205.541 354.941 205.132 353.91 205.132ZM355.276 210.463C355.086 210.653 354.86 210.804 354.612 210.906C354.363 211.008 354.097 211.061 353.828 211.06H351.993V206.956H353.828C354.233 206.955 354.629 207.075 354.966 207.299C355.303 207.524 355.566 207.844 355.721 208.218C355.876 208.592 355.916 209.003 355.837 209.4C355.758 209.797 355.563 210.162 355.276 210.448V210.463Z" fill="#242854" stroke="#87394D" stroke-width="1.11921" stroke-miterlimit="10"/>
<path d="M344.569 199.592C343.648 198.648 338.82 195.488 339.898 190.94C340.976 186.393 347.811 187.377 347.602 182.296C347.423 177.987 343.648 179.715 342.819 181.285C342.819 181.285 343.319 175.6 348.512 177.499C357.28 180.703 347.102 189.81 344.192 192.328C341.521 194.645 344.569 199.592 344.569 199.592Z" fill="#FFDEDE"/>
<path d="M350.706 187.403C350.706 187.403 349.586 191.242 345.031 193.13C345.031 193.13 352.023 193.13 350.706 187.403Z" fill="#FFDEDE"/>
<path d="M401.143 222.246C401.143 222.246 414.26 150.381 348.562 140.35" stroke="#87394D" stroke-width="1.11921" stroke-miterlimit="10"/>
<path d="M401.401 221.847H366.43C368.87 216.188 375.756 212.106 383.915 212.106C392.075 212.106 398.961 216.188 401.401 221.847Z" fill="#87394D"/>
<path d="M401.393 221.847H396.991C394.674 216.479 388.123 212.606 380.401 212.606C379.856 212.606 379.319 212.606 378.789 212.666C380.47 212.293 382.186 212.105 383.908 212.106C392.044 212.106 398.954 216.188 401.393 221.847Z" fill="#242854"/>
<path d="M349.129 141.022C348.812 142.444 347.693 143.555 346.103 144.231C344.283 145.007 341.843 145.212 339.306 144.649C336.769 144.085 334.646 142.888 333.315 141.395C332.158 140.112 331.61 138.631 331.923 137.21C332.598 134.158 336.997 132.535 341.75 133.583C346.503 134.632 349.804 137.963 349.129 141.022Z" fill="#252954"/>
<path d="M349.128 141.022C348.833 142.354 347.826 143.418 346.386 144.104C347.062 143.57 347.54 142.823 347.74 141.985C348.37 139.135 345.289 136.035 340.861 135.053C336.682 134.132 332.795 135.426 331.836 137.963C331.84 137.712 331.869 137.462 331.922 137.217C332.597 134.162 336.996 132.539 341.748 133.587C346.501 134.636 349.803 137.967 349.128 141.022Z" fill="#252954"/>
<path d="M345.146 143.517C343.327 144.161 341.364 144.281 339.481 143.864C337.597 143.447 335.868 142.51 334.491 141.16C333.875 139.817 337.509 139.347 340.341 139.973C343.172 140.6 346.317 142.809 345.146 143.517Z" fill="#87394D"/>
<path d="M89.1829 110.626H213.538V122.012L89.1568 111.503C88.8285 111.469 88.8509 110.626 89.1829 110.626Z" fill="#87394D"/>
<path d="M200.144 54.3115H194.914C193.852 54.3115 192.992 55.1717 192.992 56.2328V99.08C192.992 100.141 193.852 101.001 194.914 101.001H200.144C201.205 101.001 202.065 100.141 202.065 99.08V56.2328C202.065 55.1717 201.205 54.3115 200.144 54.3115Z" fill="white" stroke="#87394D" stroke-width="1.11921" stroke-miterlimit="10"/>
<path d="M190.544 58.2617H184.298C183.262 58.2617 182.422 59.1019 182.422 60.1383V100.049C182.422 101.086 183.262 101.926 184.298 101.926H190.544C191.58 101.926 192.42 101.086 192.42 100.049V60.1383C192.42 59.1019 191.58 58.2617 190.544 58.2617Z" fill="#000A78"/>
<path d="M180.686 47.6592H179C178.033 47.6592 177.25 48.4425 177.25 49.4089V100.176C177.25 101.143 178.033 101.926 179 101.926H180.686C181.652 101.926 182.436 101.143 182.436 100.176V49.4089C182.436 48.4425 181.652 47.6592 180.686 47.6592Z" fill="#D6EAF2"/>
<path d="M174.956 61.4248H170.464C169.405 61.4248 168.547 62.2833 168.547 63.3424V99.4556C168.547 100.515 169.405 101.373 170.464 101.373H174.956C176.015 101.373 176.874 100.515 176.874 99.4556V63.3424C176.874 62.2833 176.015 61.4248 174.956 61.4248Z" fill="white" stroke="#87394D" stroke-width="1.11921" stroke-miterlimit="10"/>
<path d="M153.056 101.925H145.789L163.969 53.2128C164.039 53.024 164.165 52.8611 164.331 52.7458C164.496 52.6305 164.692 52.5683 164.894 52.5674H170.05C170.211 52.5696 170.369 52.6106 170.511 52.6869C170.653 52.7632 170.775 52.8726 170.866 53.0058C170.956 53.139 171.014 53.2921 171.033 53.4522C171.052 53.6123 171.032 53.7746 170.975 53.9254L153.056 101.925Z" fill="#000A78"/>
<path d="M213.182 101.925H89.4531V110.088H213.182V101.925Z" fill="white" stroke="#87394D" stroke-width="1.11921" stroke-miterlimit="10"/>
<path d="M101.952 83.8291H133.171V87.2576C133.171 91.1491 131.625 94.8812 128.873 97.6329C126.122 100.385 122.39 101.93 118.498 101.93H116.61C112.719 101.93 108.987 100.385 106.235 97.6329C103.483 94.8812 101.938 91.1491 101.938 87.2576V83.8291H101.952Z" fill="#000A78"/>
<path d="M130.05 83.8289H106.92C106.92 83.8289 100.152 89.3466 96.2909 84.8213C93.4928 81.5457 106.879 81.4002 106.879 81.4002L107.282 81.2585C107.282 81.2585 101.54 69.2008 106.968 67.19C110.699 65.7984 111.624 76.0131 111.818 79.3297C113.792 78.5052 117.642 77.3151 117.974 80.4489C117.974 80.4489 118.403 67.5444 123.809 68.7755C128.304 69.8015 121.637 81.93 121.637 81.93L122.104 82.2135C122.104 82.2135 134.456 73.1927 137.485 75.2893C139.776 76.8749 130.05 83.8289 130.05 83.8289Z" fill="#A56A77"/>
<path d="M110.469 83.8291C110.469 83.8291 110.708 72.7042 114.897 73.0101C119.087 73.316 113.248 83.8291 113.248 83.8291H110.469Z" fill="#A56A77"/>
<path d="M110.455 83.8293C110.455 83.8293 106.254 73.3311 100.561 76.0209C94.9983 78.6324 106.963 83.8293 106.963 83.8293H110.455Z" fill="#A56A77"/>
<path d="M119.086 83.8285C119.086 83.8285 122.858 74.3711 128.838 75.2702C134.818 76.1693 121.455 83.8285 121.455 83.8285H119.086Z" fill="#A56A77"/>
<path d="M125.242 83.8304C125.242 83.8304 136.942 77.9396 139.046 81.4913C141.15 85.0429 125.242 83.8304 125.242 83.8304Z" fill="#A56A77"/>
<path d="M263.547 133.899C263.547 133.899 266.628 134.25 269.098 130.567" stroke="#3A1A3F" stroke-width="1.11921" stroke-linecap="round" stroke-linejoin="round"/>
<path d="M275.82 123.333C275.82 123.333 275.82 119.93 278.805 119.975" stroke="#E2564B" stroke-width="1.11921" stroke-linecap="round" stroke-linejoin="round"/>
<path d="M276.523 121.494L278.512 122.423" stroke="#E2564B" stroke-width="1.11921" stroke-linecap="round" stroke-linejoin="round"/>
<path d="M281.152 126.851C281.986 126.851 282.663 126.174 282.663 125.34C282.663 124.506 281.986 123.829 281.152 123.829C280.317 123.829 279.641 124.506 279.641 125.34C279.641 126.174 280.317 126.851 281.152 126.851Z" fill="#FFCDC5"/>
<path d="M261.523 123.829V129.66L263.079 130.291" stroke="#E2564B" stroke-width="1.11921" stroke-linecap="round" stroke-linejoin="round"/>
<path d="M264.141 118.8C264.141 118.8 265.846 117.479 268.789 118.8" stroke="#3A1A3F" stroke-width="1.11921" stroke-linecap="round" stroke-linejoin="round"/>
<path d="M267 124.292C267.558 124.194 267.908 123.529 267.782 122.807C267.655 122.084 267.1 121.578 266.542 121.675C265.984 121.773 265.634 122.438 265.761 123.161C265.887 123.883 266.442 124.39 267 124.292Z" fill="#242854"/>
<path d="M257.646 126.67C258.198 126.54 258.509 125.856 258.341 125.142C258.173 124.428 257.589 123.955 257.038 124.084C256.486 124.214 256.175 124.898 256.343 125.612C256.511 126.326 257.095 126.8 257.646 126.67Z" fill="#242854"/>
<path d="M323.4 89.8251V92.418H322.975V89.8251H323.4ZM324.996 90.3288C325.158 90.3288 325.302 90.3624 325.429 90.4295C325.558 90.4967 325.659 90.5961 325.731 90.728C325.803 90.8598 325.839 91.019 325.839 91.2055V92.418H325.418V91.2689C325.418 91.0849 325.371 90.9443 325.279 90.8473C325.187 90.7479 325.062 90.6981 324.903 90.6981C324.743 90.6981 324.617 90.7479 324.522 90.8473C324.43 90.9443 324.384 91.0849 324.384 91.2689V92.418H323.959V90.3624H324.384V90.5974C324.454 90.5128 324.542 90.4469 324.649 90.3997C324.758 90.3524 324.874 90.3288 324.996 90.3288ZM327.176 92.0374L327.758 90.3624H328.21L327.426 92.418H326.919L326.139 90.3624H326.594L327.176 92.0374ZM329.423 92.4515C329.229 92.4515 329.053 92.408 328.897 92.321C328.74 92.2314 328.617 92.1071 328.527 91.9479C328.438 91.7862 328.393 91.5997 328.393 91.3883C328.393 91.1794 328.439 90.9941 328.531 90.8324C328.623 90.6708 328.749 90.5464 328.908 90.4593C329.067 90.3723 329.245 90.3288 329.441 90.3288C329.638 90.3288 329.816 90.3723 329.975 90.4593C330.134 90.5464 330.26 90.6708 330.352 90.8324C330.444 90.9941 330.49 91.1794 330.49 91.3883C330.49 91.5972 330.442 91.7825 330.348 91.9442C330.253 92.1058 330.124 92.2314 329.96 92.321C329.798 92.408 329.619 92.4515 329.423 92.4515ZM329.423 92.0822C329.532 92.0822 329.634 92.0561 329.729 92.0039C329.826 91.9516 329.904 91.8733 329.964 91.7688C330.023 91.6644 330.053 91.5375 330.053 91.3883C330.053 91.2391 330.025 91.1135 329.967 91.0115C329.91 90.907 329.834 90.8287 329.74 90.7765C329.645 90.7242 329.543 90.6981 329.434 90.6981C329.324 90.6981 329.223 90.7242 329.128 90.7765C329.036 90.8287 328.963 90.907 328.908 91.0115C328.853 91.1135 328.826 91.2391 328.826 91.3883C328.826 91.6096 328.882 91.7813 328.994 91.9031C329.108 92.0225 329.251 92.0822 329.423 92.0822ZM331.127 90.09C331.049 90.09 330.985 90.0639 330.933 90.0117C330.88 89.9594 330.854 89.8948 330.854 89.8177C330.854 89.7406 330.88 89.6759 330.933 89.6237C330.985 89.5714 331.049 89.5453 331.127 89.5453C331.201 89.5453 331.265 89.5714 331.317 89.6237C331.369 89.6759 331.395 89.7406 331.395 89.8177C331.395 89.8948 331.369 89.9594 331.317 90.0117C331.265 90.0639 331.201 90.09 331.127 90.09ZM331.335 90.3624V92.418H330.91V90.3624H331.335ZM331.752 91.3883C331.752 91.1769 331.794 90.9916 331.879 90.8324C331.966 90.6708 332.085 90.5464 332.237 90.4593C332.389 90.3723 332.563 90.3288 332.759 90.3288C333.008 90.3288 333.213 90.3885 333.375 90.5078C333.539 90.6247 333.65 90.7926 333.707 91.0115H333.248C333.211 90.9095 333.151 90.8299 333.069 90.7727C332.987 90.7155 332.884 90.6869 332.759 90.6869C332.585 90.6869 332.446 90.7491 332.342 90.8735C332.24 90.9953 332.189 91.1669 332.189 91.3883C332.189 91.6096 332.24 91.7825 332.342 91.9069C332.446 92.0312 332.585 92.0934 332.759 92.0934C333.006 92.0934 333.168 91.9852 333.248 91.7688H333.707C333.647 91.9777 333.535 92.1444 333.371 92.2687C333.207 92.3906 333.003 92.4515 332.759 92.4515C332.563 92.4515 332.389 92.408 332.237 92.321C332.085 92.2314 331.966 92.1071 331.879 91.9479C331.794 91.7862 331.752 91.5997 331.752 91.3883ZM336.015 91.3398C336.015 91.4169 336.01 91.4865 336 91.5487H334.429C334.442 91.7129 334.503 91.8447 334.612 91.9442C334.721 92.0437 334.856 92.0934 335.015 92.0934C335.244 92.0934 335.405 91.9976 335.5 91.8061H335.959C335.897 91.9952 335.783 92.1506 335.619 92.2725C335.458 92.3919 335.256 92.4515 335.015 92.4515C334.818 92.4515 334.642 92.408 334.485 92.321C334.331 92.2314 334.209 92.1071 334.12 91.9479C334.033 91.7862 333.989 91.5997 333.989 91.3883C333.989 91.1769 334.031 90.9916 334.116 90.8324C334.203 90.6708 334.324 90.5464 334.478 90.4593C334.634 90.3723 334.814 90.3288 335.015 90.3288C335.209 90.3288 335.382 90.3711 335.534 90.4556C335.685 90.5402 335.803 90.6596 335.888 90.8138C335.973 90.9655 336.015 91.1408 336.015 91.3398ZM335.571 91.2055C335.568 91.0488 335.512 90.9232 335.403 90.8287C335.294 90.7342 335.158 90.6869 334.996 90.6869C334.85 90.6869 334.724 90.7342 334.62 90.8287C334.515 90.9207 334.453 91.0463 334.433 91.2055H335.571Z" fill="#000A78"/>
<path d="M370.715 72.4911L325.308 69.7828C325.052 69.769 324.802 69.6965 324.579 69.5707C324.355 69.445 324.163 69.2695 324.019 69.0577C323.874 68.846 323.779 68.6037 323.743 68.3497C323.707 68.0958 323.73 67.8368 323.81 67.5931L336.487 27.3143C336.657 26.8043 336.97 26.3539 337.389 26.0168C337.808 25.6797 338.315 25.47 338.85 25.4127L386.216 21.9553C386.492 21.9318 386.769 21.977 387.022 22.0868C387.276 22.1967 387.499 22.3678 387.67 22.5848C387.841 22.8018 387.956 23.0579 388.004 23.3302C388.052 23.6025 388.032 23.8825 387.945 24.145L373.424 70.5895C373.263 71.1712 372.904 71.6788 372.41 72.0257C371.916 72.3725 371.317 72.537 370.715 72.4911Z" fill="#6874A7"/>
<path d="M369.059 71.4549L323.652 68.7466C323.396 68.7329 323.146 68.6603 322.922 68.5346C322.699 68.4089 322.507 68.2333 322.362 68.0216C322.217 67.8099 322.123 67.5676 322.087 67.3136C322.051 67.0596 322.074 66.8007 322.154 66.5569L334.831 26.2781C335.001 25.7681 335.314 25.3178 335.733 24.9807C336.152 24.6436 336.659 24.4339 337.193 24.3765L384.56 20.9191C384.835 20.8956 385.112 20.9408 385.366 21.0507C385.62 21.1606 385.842 21.3317 386.014 21.5487C386.185 21.7657 386.3 22.0218 386.348 22.2941C386.396 22.5664 386.375 22.8463 386.289 23.1088L371.767 69.5534C371.606 70.1351 371.248 70.6427 370.754 70.9896C370.26 71.3364 369.661 71.5009 369.059 71.4549Z" fill="#242854"/>
<path d="M345.781 32.1559L337.772 32.5593C337.708 32.562 337.644 32.5493 337.585 32.5223C337.527 32.4953 337.476 32.4547 337.437 32.4039C337.397 32.3532 337.37 32.2938 337.358 32.2306C337.347 32.1674 337.35 32.1023 337.368 32.0407L337.945 30.1967C337.989 30.0634 338.074 29.9473 338.188 29.8647C338.301 29.782 338.438 29.737 338.579 29.7358L346.646 29.2748C346.71 29.2721 346.774 29.2848 346.832 29.3118C346.891 29.3388 346.942 29.3794 346.981 29.4301C347.021 29.4809 347.047 29.5403 347.059 29.6035C347.071 29.6667 347.068 29.7318 347.049 29.7934L346.415 31.695C346.352 31.8149 346.262 31.9188 346.152 31.9987C346.042 32.0786 345.915 32.1324 345.781 32.1559Z" fill="#87394D"/>
<path d="M329.062 63.445C328.872 63.436 328.685 63.3839 328.518 63.2926C328.35 63.2013 328.205 63.0732 328.094 62.9179C327.983 62.7625 327.909 62.5841 327.877 62.3959C327.845 62.2077 327.856 62.0147 327.91 61.8315L331.713 49.8458C331.789 49.5987 331.942 49.382 332.149 49.2268C332.356 49.0715 332.607 48.9857 332.865 48.9815C333.059 48.9809 333.251 49.0268 333.424 49.1154C333.596 49.204 333.745 49.3326 333.858 49.4906C333.971 49.6486 334.044 49.8312 334.072 50.0234C334.1 50.2155 334.081 50.4115 334.018 50.5949L330.215 62.5806C330.172 62.8459 330.028 63.0843 329.813 63.2455C329.598 63.4067 329.329 63.4782 329.062 63.445Z" fill="#87394D"/>
<path d="M334.77 63.6763C334.572 63.671 334.378 63.6192 334.204 63.5249C334.031 63.4306 333.881 63.2966 333.769 63.1337C333.657 62.9708 333.584 62.7837 333.558 62.5876C333.532 62.3915 333.552 62.1919 333.618 62.0052L339.726 42.586C339.814 42.3305 339.977 42.1068 340.192 41.9428C340.407 41.7788 340.666 41.6819 340.936 41.6641C341.139 41.6635 341.34 41.7102 341.522 41.8004C341.704 41.8906 341.863 42.0219 341.986 42.1838C342.109 42.3458 342.192 42.5341 342.23 42.7339C342.268 42.9337 342.259 43.1395 342.203 43.3352L336.095 62.7543C336.014 63.0369 335.838 63.2828 335.596 63.4508C335.355 63.6187 335.063 63.6983 334.77 63.6763Z" fill="#6874A7"/>
<path d="M340.641 63.9643C340.438 63.9519 340.241 63.8939 340.064 63.7948C339.887 63.6956 339.735 63.5579 339.619 63.3917C339.502 63.2256 339.425 63.0354 339.393 62.8352C339.36 62.635 339.373 62.4301 339.43 62.2356L341.966 54.226C342.048 53.955 342.216 53.7182 342.445 53.5517C342.674 53.3852 342.951 53.2982 343.234 53.304C343.44 53.3102 343.643 53.3635 343.826 53.4596C344.008 53.5558 344.167 53.6924 344.289 53.8591C344.411 54.0257 344.494 54.218 344.531 54.4214C344.568 54.6247 344.557 54.8338 344.501 55.0327L341.966 63.0423C341.872 63.3169 341.692 63.5544 341.454 63.7202C341.216 63.8859 340.931 63.9715 340.641 63.9643Z" fill="#87394D"/>
<path d="M346.744 64.1934C346.534 64.1817 346.33 64.1228 346.145 64.0211C345.961 63.9193 345.802 63.7773 345.68 63.6057C345.558 63.434 345.477 63.2371 345.442 63.0296C345.406 62.8221 345.418 62.6093 345.477 62.407L352.68 39.4729C352.768 39.2012 352.937 38.9625 353.163 38.7878C353.389 38.6131 353.662 38.5104 353.947 38.4933C354.165 38.4904 354.379 38.5391 354.574 38.6355C354.769 38.7318 354.938 38.873 355.067 39.0475C355.196 39.2219 355.283 39.4245 355.318 39.6387C355.354 39.853 355.338 40.0726 355.273 40.2796L348.07 63.2138C347.999 63.5065 347.827 63.765 347.585 63.944C347.343 64.1231 347.045 64.2113 346.744 64.1934Z" fill="#D6EAF2"/>
<path d="M353.034 64.4816C352.819 64.4647 352.609 64.4009 352.421 64.2948C352.233 64.1887 352.07 64.0428 351.944 63.8672C351.817 63.6917 351.731 63.4907 351.69 63.2784C351.65 63.066 351.656 62.8474 351.709 62.6377L356.434 47.5403C356.525 47.2593 356.702 47.0138 356.94 46.8381C357.177 46.6625 357.464 46.5655 357.759 46.5607C357.984 46.5571 358.207 46.6067 358.409 46.7056C358.611 46.8046 358.786 46.9499 358.921 47.1299C359.056 47.3098 359.147 47.5191 359.185 47.7407C359.223 47.9623 359.209 48.1899 359.142 48.4047L354.417 63.5021C354.32 63.791 354.134 64.0417 353.886 64.2179C353.637 64.394 353.339 64.4864 353.034 64.4816Z" fill="#6874A7"/>
<path d="M359.608 64.7714C359.383 64.7628 359.164 64.7023 358.967 64.5946C358.77 64.4869 358.6 64.3349 358.472 64.1506C358.343 63.9663 358.259 63.7547 358.227 63.5324C358.194 63.3102 358.213 63.0834 358.283 62.8698L359.262 59.6429C359.359 59.338 359.551 59.0725 359.811 58.8856C360.07 58.6988 360.383 58.6006 360.703 58.6057C360.931 58.609 361.155 58.6654 361.358 58.7704C361.56 58.8754 361.736 59.0261 361.87 59.2106C362.004 59.3951 362.093 59.6084 362.131 59.8334C362.168 60.0585 362.153 60.2892 362.086 60.5072L361.106 63.7341C360.99 64.0379 360.785 64.2994 360.517 64.4845C360.25 64.6696 359.933 64.7696 359.608 64.7714Z" fill="#A56A77"/>
<path d="M366.357 65.0588C366.127 65.0444 365.903 64.9787 365.702 64.8665C365.502 64.7543 365.328 64.5985 365.196 64.4105C365.063 64.2225 364.974 64.0071 364.936 63.7803C364.897 63.5534 364.91 63.3208 364.974 63.0996L369.872 47.5412C369.965 47.23 370.155 46.9564 370.414 46.7597C370.673 46.563 370.987 46.4533 371.312 46.4464C371.552 46.4435 371.788 46.4966 372.004 46.6015C372.219 46.7063 372.407 46.86 372.553 47.0502C372.698 47.2405 372.797 47.4621 372.842 47.6974C372.887 47.9327 372.876 48.1752 372.81 48.4056L367.912 63.9639C367.803 64.2882 367.594 64.5693 367.314 64.7662C367.034 64.9631 366.699 65.0656 366.357 65.0588Z" fill="#87394D"/>
<path d="M372.793 29.2755C372.908 28.8721 372.735 28.5264 372.447 28.5264C372.159 28.5264 371.756 28.8721 371.583 29.3331C371.41 29.7941 371.641 30.0822 371.929 30.0822C372.13 30.0329 372.315 29.9328 372.466 29.7916C372.617 29.6504 372.73 29.4726 372.793 29.2755Z" fill="#6874A7"/>
<path d="M375.788 29.1016C375.903 28.6983 375.73 28.3525 375.384 28.3525C375.179 28.3921 374.989 28.4888 374.836 28.6315C374.683 28.7742 374.574 28.9571 374.52 29.1593C374.405 29.5626 374.578 29.9084 374.923 29.9084C375.124 29.8591 375.309 29.759 375.461 29.6177C375.612 29.4765 375.725 29.2988 375.788 29.1016Z" fill="#6874A7"/>
<path d="M378.842 28.9288C378.958 28.5254 378.785 28.1797 378.439 28.1797C378.234 28.2193 378.044 28.316 377.891 28.4587C377.738 28.6014 377.628 28.7843 377.575 28.9864C377.459 29.3898 377.632 29.7355 377.978 29.7355C378.183 29.6959 378.373 29.5992 378.526 29.4565C378.679 29.3138 378.789 29.1309 378.842 28.9288Z" fill="#6874A7"/>
</svg>
