<svg width="470" height="403" viewBox="0 0 470 403" fill="none" xmlns="http://www.w3.org/2000/svg">
<g clip-path="url(#clip0_3260_6011)">
<path d="M309.812 51.3867H261.477V99.7226H309.812V51.3867Z" fill="#E4F7FF"/>
<path d="M307.664 49.2461H259.328V97.582H307.664V49.2461Z" fill="#6874A7" stroke="#161D56" stroke-width="1.03422" stroke-linejoin="round"/>
<path d="M299.971 56.9443H267.031V89.8842H299.971V56.9443Z" fill="#87394D"/>
<path d="M283.664 66.048C283.664 66.048 284.567 63.0522 282.461 62.1387" stroke="#D6EAF2" stroke-width="1.03422" stroke-miterlimit="10"/>
<path d="M288.124 70.7595C288.315 71.8872 288.738 72.9627 289.368 73.9174C290.078 74.9792 290.487 76.2133 290.552 77.4888C290.617 78.7642 290.336 80.0335 289.738 81.1622C289.14 82.2908 288.248 83.2366 287.157 83.8994C286.065 84.5622 284.814 84.9173 283.537 84.927C282.26 84.9366 281.004 84.6006 279.903 83.9544C278.801 83.3082 277.895 82.376 277.28 81.2566C276.665 80.1371 276.365 78.8722 276.411 77.5959C276.457 76.3196 276.847 75.0795 277.54 74.007C278.19 73.0233 278.634 71.9188 278.847 70.7595L278.888 70.5148C278.94 70.2183 278.971 69.9218 278.999 69.6219C279.09 68.6108 279.556 67.6705 280.306 66.986C281.055 66.3014 282.034 65.9222 283.049 65.9229H283.918C284.936 65.9233 285.917 66.3051 286.667 66.993C287.418 67.6809 287.883 68.625 287.972 69.6391C287.996 69.9391 288.027 70.2355 288.079 70.532L288.124 70.7595Z" fill="#161D56"/>
<path d="M284.073 65.89C284.073 65.89 283.852 63.1321 287.803 61.9014C287.796 61.9014 288.344 66.8415 284.073 65.89Z" fill="#D6EAF2"/>
<path d="M237.558 268.307L226.054 375.807C226.036 375.975 226.053 376.145 226.105 376.306C226.156 376.467 226.241 376.615 226.354 376.741C226.467 376.867 226.605 376.967 226.76 377.036C226.914 377.105 227.081 377.141 227.25 377.141C227.53 377.14 227.801 377.043 228.016 376.865C228.232 376.687 228.379 376.44 228.433 376.165L247.135 268.307H237.558Z" fill="#161D56" stroke="#87394D" stroke-width="1.03422" stroke-miterlimit="10"/>
<path d="M281.671 268.307L293.175 373.735C293.193 373.902 293.177 374.072 293.126 374.232C293.076 374.393 292.992 374.541 292.88 374.667C292.769 374.794 292.633 374.895 292.48 374.966C292.327 375.036 292.16 375.073 291.992 375.076C291.712 375.076 291.44 374.979 291.224 374.801C291.008 374.623 290.86 374.375 290.806 374.1L272.094 268.307H281.671Z" fill="#161D56" stroke="#87394D" stroke-width="1.03422" stroke-miterlimit="10"/>
<path d="M287.289 261.706H231.024C229.488 261.706 228.242 262.952 228.242 264.488V265.522C228.242 267.059 229.488 268.304 231.024 268.304H287.289C288.826 268.304 290.071 267.059 290.071 265.522V264.488C290.071 262.952 288.826 261.706 287.289 261.706Z" fill="#161D56" stroke="#87394D" stroke-width="1.03422" stroke-miterlimit="10"/>
<path d="M336.075 220.604H116.311C114.439 220.604 112.922 222.122 112.922 223.993V225.258C112.922 227.13 114.439 228.647 116.311 228.647H336.075C337.947 228.647 339.464 227.13 339.464 225.258V223.993C339.464 222.122 337.947 220.604 336.075 220.604Z" fill="#161D56" stroke="#995C73" stroke-width="1.03422" stroke-miterlimit="10"/>
<path d="M329.839 228.643H322.086V377.135H329.839V228.643Z" fill="#161D56" stroke="#995C73" stroke-width="1.03422" stroke-miterlimit="10"/>
<path d="M130.289 228.643H122.539V377.135H130.289V228.643Z" fill="#161D56" stroke="#995C73" stroke-width="1.03422" stroke-miterlimit="10"/>
<path d="M122.539 228.643H130.289V231.959L122.539 231.132V228.643Z" fill="#161D56"/>
<path d="M329.839 228.643V232.166L322.086 231.132V228.643H329.839Z" fill="#161D56"/>
<path d="M107.687 341.951C107.687 344.833 105.466 345.886 105.469 351H128.164C128.164 351 128.569 345.724 122.802 345.562C117.854 345.423 114.115 342.396 114.169 341.951C114.223 341.505 107.687 341.951 107.687 341.951Z" fill="#995C73"/>
<path d="M105.308 350.477H128.326V350.981C128.326 351.167 128.253 351.346 128.121 351.477C127.99 351.608 127.812 351.682 127.626 351.682H105.998C105.812 351.682 105.634 351.608 105.502 351.477C105.371 351.346 105.297 351.167 105.297 350.981V350.477H105.308Z" fill="#995C73"/>
<path d="M115.772 346.919C115.749 346.922 115.725 346.922 115.701 346.919C115.657 346.91 115.616 346.893 115.578 346.868C115.541 346.842 115.509 346.81 115.485 346.773C115.46 346.735 115.443 346.693 115.435 346.649C115.427 346.605 115.428 346.56 115.437 346.516C115.454 346.431 115.877 344.454 117.168 343.872C117.772 343.588 118.442 343.671 119.154 344.085C119.192 344.107 119.226 344.137 119.254 344.172C119.281 344.208 119.301 344.248 119.312 344.292C119.324 344.335 119.327 344.38 119.321 344.424C119.315 344.469 119.301 344.511 119.278 344.55C119.256 344.589 119.226 344.623 119.191 344.65C119.155 344.677 119.115 344.697 119.072 344.709C119.029 344.72 118.983 344.723 118.939 344.718C118.895 344.712 118.852 344.697 118.813 344.675C118.286 344.374 117.835 344.315 117.437 344.493C116.626 344.859 116.192 346.178 116.093 346.655C116.076 346.728 116.035 346.794 115.977 346.841C115.919 346.889 115.847 346.916 115.772 346.919Z" fill="#995C73"/>
<path d="M118.661 347.094C118.633 347.099 118.604 347.099 118.576 347.094C118.532 347.083 118.491 347.063 118.456 347.036C118.42 347.009 118.39 346.975 118.367 346.937C118.344 346.898 118.329 346.855 118.323 346.81C118.317 346.766 118.32 346.721 118.332 346.677C118.349 346.618 118.737 345.165 119.883 344.632C120.519 344.348 121.242 344.382 122.034 344.762C122.107 344.805 122.162 344.873 122.187 344.954C122.213 345.035 122.207 345.122 122.172 345.199C122.137 345.276 122.074 345.337 121.996 345.37C121.918 345.403 121.83 345.406 121.75 345.378C121.152 345.094 120.615 345.049 120.184 345.25C119.333 345.65 119.007 346.839 119.004 346.85C118.982 346.923 118.936 346.986 118.874 347.03C118.812 347.075 118.737 347.097 118.661 347.094Z" fill="#242854"/>
<path d="M118.677 340.88C117.002 341.503 115.258 341.922 113.483 342.128C110.464 342.517 104.938 341.731 104.938 341.731C99.1309 332.614 93.0997 306.441 94.0784 284.92C94.6458 272.765 101.67 267.448 97.1451 256.699C93.1508 247.837 79.1226 223.483 76.8162 203.44C75.9652 196.155 77.1481 190.822 79.3524 187.026C80.8077 187.236 82.2516 187.426 83.67 187.594C93.3324 188.802 101.908 189.324 105.948 189.273C110.654 198.297 115.823 214.822 119.409 247.514L120.368 261.599C120.833 268.62 118.651 303.561 118.677 340.88Z" fill="#242854"/>
<path d="M55.6275 341.95C55.6275 344.832 53.4062 345.885 53.4062 350.999H76.2798C76.2798 350.999 76.6855 345.723 70.9181 345.561C65.9707 345.422 62.5664 342.395 62.6203 341.95C62.6742 341.505 55.6275 341.95 55.6275 341.95Z" fill="#995C73"/>
<path d="M53.4062 350.476H76.4245V350.981C76.4245 351.166 76.3506 351.345 76.2192 351.476C76.0878 351.607 75.9096 351.681 75.7238 351.681H54.1098C53.924 351.681 53.7457 351.607 53.6143 351.476C53.4829 351.345 53.4091 351.166 53.4091 350.981V350.476H53.4062Z" fill="#995C73"/>
<path d="M64.0818 347.092H64.0137C63.9698 347.083 63.928 347.065 63.8909 347.04C63.8537 347.015 63.8219 346.983 63.7974 346.946C63.7728 346.908 63.756 346.866 63.7478 346.822C63.7397 346.778 63.7404 346.733 63.7499 346.689C63.7669 346.607 64.1896 344.626 65.4804 344.045C66.0846 343.761 66.7541 343.843 67.4662 344.258C67.5049 344.28 67.5389 344.31 67.5661 344.345C67.5934 344.381 67.6134 344.421 67.6249 344.464C67.6365 344.508 67.6395 344.553 67.6337 344.597C67.6279 344.641 67.6134 344.684 67.591 344.723C67.5686 344.762 67.5389 344.796 67.5034 344.823C67.4679 344.85 67.4274 344.87 67.3842 344.882C67.341 344.893 67.296 344.896 67.2516 344.89C67.2073 344.885 67.1645 344.87 67.1258 344.848C66.5981 344.547 66.147 344.487 65.7499 344.666C64.9385 345.032 64.5045 346.351 64.4052 346.828C64.3878 346.901 64.3467 346.967 64.2882 347.015C64.2298 347.062 64.1572 347.089 64.0818 347.092Z" fill="#242854"/>
<path d="M67.0124 347.264C66.9842 347.269 66.9555 347.269 66.9273 347.264C66.8838 347.253 66.8429 347.233 66.8071 347.206C66.7713 347.179 66.7411 347.145 66.7185 347.107C66.6958 347.068 66.681 347.025 66.675 346.981C66.6689 346.936 66.6718 346.891 66.6833 346.847C66.6975 346.788 67.089 345.335 68.235 344.805C68.8705 344.521 69.5939 344.552 70.3854 344.933C70.4586 344.975 70.5134 345.043 70.539 345.124C70.5645 345.205 70.559 345.292 70.5236 345.369C70.4881 345.446 70.4252 345.507 70.3472 345.54C70.2692 345.573 70.1816 345.576 70.1017 345.548C69.5031 345.264 68.9669 345.219 68.5357 345.423C67.6847 345.82 67.3585 347.009 67.3528 347.02C67.3313 347.093 67.2862 347.157 67.2245 347.201C67.1628 347.245 67.0882 347.268 67.0124 347.264Z" fill="#242854"/>
<path d="M86.0755 251.673C85.9223 253.117 85.1819 258.059 84.6259 261.318C83.233 269.506 65.0885 338.523 64.6828 341.962C64.6828 341.962 63.0374 342.472 59.8261 342.569C57.3898 342.596 54.9537 342.502 52.5269 342.285C48.9666 332.302 45.9341 305.973 50.7539 286.115C53.3382 275.457 60.663 268.952 61.0261 259.625C59.324 250.32 51.1425 221.373 53.4432 201.018C54.4049 192.525 57.4006 186.976 61.1027 183.555C68.2289 185.342 76.277 186.675 83.6869 187.597C87.1421 196.695 90.1095 214.153 86.0755 251.673Z" fill="#242854"/>
<path d="M144.283 177.525C118.399 157.411 115.631 135.321 115.126 129.746C114.402 121.616 118.612 115.159 129.633 121.908C139.125 127.715 148.845 148.592 154.827 159.252C166.742 148.444 183.721 138.77 185.533 137.562C189.789 134.725 190.705 137.477 188.47 140.419C185.891 143.823 168.104 173.925 159.341 179.133C156.104 181.057 150.03 181.981 144.283 177.525Z" fill="#FFB3A4"/>
<path d="M148.819 148.095C143.579 156.974 133.835 161.933 129.92 163.644C117.656 148.279 115.492 133.857 115.126 129.746C114.402 121.616 118.612 115.162 129.633 121.905C136.388 126.041 143.259 137.808 148.819 148.095Z" fill="#3A193F"/>
<path d="M192.455 129.936C192.171 130.838 190.968 132.126 191.961 132.26C192.475 132.328 196.265 132.26 196.52 133.692C196.619 134.367 196.485 135.055 196.14 135.644C196.331 135.99 196.421 136.383 196.399 136.777C196.376 137.172 196.242 137.552 196.012 137.874C196.392 138.699 196.381 139.695 195.978 140.075C195.978 140.075 196.545 142.177 195.666 142.518C192.92 143.579 188.18 143.042 186.588 142.589C185.206 142.194 184.086 140.855 184.086 137.865C184.086 136.64 185.734 133.675 186.835 132.501C187.286 132.021 188.957 130.089 189.504 129.573C190.284 128.813 190.875 127.882 191.229 126.853C191.229 126.853 193.232 127.414 192.455 129.936Z" fill="#FFB3A4"/>
<path d="M195.599 133.354C195.599 133.987 191.797 133.57 191.117 133.618C190.155 133.686 189.982 135.692 191.224 135.672C192.879 135.835 194.546 135.835 196.2 135.672" stroke="#E2564B" stroke-width="0.851055" stroke-linecap="round" stroke-linejoin="round"/>
<path d="M195.986 137.873C191.87 138.103 190.811 137.873 190.811 137.873C190.213 137.904 189.759 135.734 191.211 135.672" stroke="#E2564B" stroke-width="0.851055" stroke-linecap="round" stroke-linejoin="round"/>
<path d="M195.771 140.076C191.884 140.359 190.596 140.076 190.596 140.076C190.029 140.062 189.638 137.846 190.795 137.874" stroke="#E2564B" stroke-width="0.851055" stroke-linecap="round" stroke-linejoin="round"/>
<path d="M191.655 140.2C191.655 140.2 190.324 139.88 190.237 140.722C190.058 142.217 190.756 142.481 194.253 142.348" stroke="#E2564B" stroke-width="0.851055" stroke-linecap="round" stroke-linejoin="round"/>
<path d="M127.527 161.546C127.527 161.546 147.592 151.455 149.558 144.862C149.558 144.862 138.233 125.634 127.541 120.165C116.849 114.695 102.75 124.289 127.527 161.546Z" fill="#87394D"/>
<path d="M73.4251 196.563C55.0253 191.913 51.1927 189.431 59.9756 177.051C66.9854 167.17 68.1656 129.724 77.6123 117.647C86.8746 105.801 100.086 108.286 104.608 108.836C104.608 108.836 112.301 108.584 126.806 119.276C145.302 132.913 134.766 148.813 132.21 154.095C130.65 157.321 124.188 167.851 108.06 186.092C105.697 188.762 108.001 194.248 108.398 195.329C108.795 196.41 93.6064 201.669 73.4251 196.563Z" fill="#3D4165"/>
<path d="M114.437 95.9453C114.437 95.9453 112.343 103.778 104.188 108.927C104.188 108.927 111.507 117.329 125.226 118.141C125.226 118.141 119.268 112.637 127.39 101.761L114.437 95.9453Z" fill="#FFB3A4"/>
<path d="M114.716 96.0703C114.506 96.5469 114.336 96.9469 114.222 97.2391C114.222 97.2391 112.804 102.028 114.367 105.857C115.576 108.833 120.299 113.344 122.849 113.165C122.889 110.55 124.154 106.073 127.388 101.761L114.716 96.0703Z" fill="#3A193F"/>
<path d="M114.141 97.0129C114.141 97.0129 115.117 102.037 116.209 103.796C118.118 106.871 122.98 109.827 125.003 109.634C126.393 109.501 128.248 109.489 131.244 103.512C132.095 101.81 135.905 90.8825 135.437 90.2385C134.969 89.5946 122.166 83.0868 120.878 84.2414C119.59 85.396 115.04 94.7321 114.141 97.0129Z" fill="#FFB3A4"/>
<path d="M115.613 93.7665C115.613 93.7665 118.166 95.0459 119.326 90.3623C120.365 86.1893 121.545 85.7411 125.931 89.3297C129.499 92.2516 137.21 95.6331 140.052 92.0757C142.657 88.8134 140.447 86.1893 137.842 86.4361C134.671 86.7339 133.811 79.6674 126.935 78.4078C121.443 77.3922 119.332 81.7042 119.332 81.7042C119.332 81.7042 116.617 79.7184 114.552 82.7368C111.948 86.5325 114.104 97.0799 114.104 97.0799L115.613 93.7665Z" fill="#41465A"/>
<path d="M124.875 87.626C128.404 91.1862 133.953 95.5975 137.38 94.1224" stroke="#41465A" stroke-width="0.851055" stroke-linecap="round" stroke-linejoin="round"/>
<path d="M119.397 81.9255C119.397 81.9255 118.94 79.8007 116.844 80.1751" stroke="#41465A" stroke-width="0.851055" stroke-miterlimit="10"/>
<path d="M115.763 93.8317C115.763 93.8317 115.122 91.6672 113.431 92.2629C112.169 92.7083 114.081 97.1707 114.081 97.1707L115.763 93.8317Z" fill="#FFB3A4"/>
<path d="M131.834 209.346C132.337 210.166 133.253 210.73 134.671 210.563C136.592 210.336 142.492 209.822 144.805 212.424C146.294 214.097 147.619 215.3 147.619 215.3C147.619 215.3 146.444 216.52 144.853 215.822C142.075 214.608 138.561 216.038 137.406 216.673C136.251 217.309 132.598 218.041 129.049 214.404C125.5 210.767 131.834 209.346 131.834 209.346Z" fill="#FFB3A4"/>
<path d="M96.2774 186.123C106.972 198.656 127.917 213.76 129.971 215.164C131.599 216.279 135.006 214.106 132.912 211.062C130.694 207.828 116.113 181.743 107.605 172.634C107.767 161.346 108.697 128.3 102.215 117.628C96.9837 108.998 84.3229 114.714 81.6109 122.413C77.9967 132.697 77.4066 152.875 91.0491 178.472C91.7327 179.757 94.1611 183.797 96.2774 186.123Z" fill="#FFB3A4"/>
<path d="M107.63 150.933C100.254 154.022 88.3592 155.123 82.0642 155.5C78.2458 140.885 79.1819 129.33 81.6188 122.414C84.3308 114.715 96.9889 109.001 102.223 117.628C106.055 123.94 107.292 138.093 107.63 150.933Z" fill="#3A193F"/>
<path d="M77.8468 152.025C77.8468 152.025 97.7189 153.355 108.005 148.848C108.005 148.848 110.411 110.459 92.0282 111.685C69.9603 113.16 77.8468 152.025 77.8468 152.025Z" fill="#87394D"/>
<path d="M125.991 92.1914C125.991 92.1914 124.691 91.1872 122.453 92.1914" stroke="#41465A" stroke-width="0.851055" stroke-linecap="round" stroke-linejoin="round"/>
<path d="M124.201 95.9025C124.296 95.3559 124.03 94.8534 123.608 94.7801C123.186 94.7069 122.767 95.0906 122.672 95.6372C122.577 96.1838 122.842 96.6863 123.265 96.7596C123.687 96.8328 124.106 96.4491 124.201 95.9025Z" fill="#242854"/>
<path d="M131.922 97.345C132.05 96.802 131.813 96.2819 131.394 96.1832C130.974 96.0846 130.531 96.4447 130.403 96.9876C130.275 97.5306 130.512 98.0507 130.931 98.1494C131.351 98.2481 131.794 97.8879 131.922 97.345Z" fill="#242854"/>
<path d="M128.819 95.1436L129.103 100.25L127.375 100.877" stroke="#242854" stroke-width="0.851055" stroke-linecap="round" stroke-linejoin="round"/>
<path d="M122.867 100.816C122.867 100.816 122.867 103.086 124.569 103.653" stroke="#41465A" stroke-width="0.851055" stroke-linecap="round" stroke-linejoin="round"/>
<path d="M115.196 97.1288C116.763 97.1288 118.033 95.8587 118.033 94.2919C118.033 92.7252 116.763 91.4551 115.196 91.4551C113.629 91.4551 112.359 92.7252 112.359 94.2919C112.359 95.8587 113.629 97.1288 115.196 97.1288Z" fill="#FFB3A4"/>
<path d="M180.31 219.927V217.867C180.311 217.302 180.231 216.742 180.075 216.223C179.919 215.704 179.691 215.237 179.405 214.851C179.119 214.464 178.78 214.167 178.411 213.977C178.041 213.787 177.648 213.709 177.257 213.748L125.089 218.436C124.825 218.464 124.578 218.635 124.398 218.915C124.217 219.194 124.117 219.562 124.117 219.944L180.31 219.927Z" fill="#161D56"/>
<path d="M210.506 210.918H165.253C164.92 210.918 164.592 210.841 164.293 210.693C163.994 210.546 163.734 210.331 163.531 210.066C163.329 209.802 163.191 209.494 163.126 209.167C163.062 208.84 163.074 208.503 163.162 208.181L170.669 180.53C171.073 179.069 172.391 177.885 173.905 177.885H219.157C220.586 177.885 221.624 179.413 221.249 180.792L213.741 208.443C213.549 209.154 213.127 209.781 212.543 210.228C211.958 210.676 211.242 210.918 210.506 210.918Z" fill="#D6EAF2"/>
<path d="M210.516 210.916H166.56C166.236 210.916 165.916 210.841 165.626 210.697C165.336 210.553 165.082 210.344 164.886 210.087C164.689 209.829 164.555 209.53 164.492 209.212C164.43 208.894 164.442 208.566 164.527 208.253L171.814 181.343C172.001 180.652 172.411 180.042 172.979 179.607C173.547 179.172 174.243 178.936 174.958 178.936H218.915C219.239 178.936 219.559 179.011 219.849 179.155C220.139 179.299 220.393 179.508 220.589 179.765C220.786 180.023 220.921 180.322 220.983 180.64C221.045 180.958 221.034 181.286 220.949 181.598L213.655 208.509C213.468 209.199 213.06 209.808 212.493 210.243C211.925 210.678 211.231 210.915 210.516 210.916Z" fill="#D4D1F4"/>
<path d="M210.516 210.916H166.56C166.236 210.916 165.916 210.841 165.626 210.697C165.336 210.553 165.082 210.344 164.886 210.087C164.689 209.829 164.555 209.53 164.492 209.212C164.43 208.894 164.442 208.566 164.527 208.253L171.814 181.343C172.001 180.652 172.411 180.042 172.979 179.607C173.547 179.172 174.243 178.936 174.958 178.936H218.915C219.239 178.936 219.559 179.011 219.849 179.155C220.139 179.299 220.393 179.508 220.589 179.765C220.786 180.023 220.921 180.322 220.983 180.64C221.045 180.958 221.034 181.286 220.949 181.598L213.655 208.509C213.468 209.199 213.06 209.808 212.493 210.243C211.925 210.678 211.231 210.915 210.516 210.916Z" fill="#161D56"/>
<path d="M200.574 218.311L196.205 203.14H185.977L190.047 217.266C190.379 218.417 189.414 219.539 188.094 219.539H185.271C185.185 219.535 185.101 219.565 185.037 219.622C184.973 219.68 184.935 219.76 184.93 219.846V220.436C184.935 220.522 184.973 220.602 185.037 220.66C185.101 220.717 185.185 220.747 185.271 220.742H198.541C199.917 220.742 200.918 219.504 200.574 218.311Z" fill="#7F2A3C" fill-opacity="0.7"/>
<path d="M188.929 220.211H184.953V219.846C184.958 219.76 184.997 219.68 185.061 219.622C185.125 219.565 185.209 219.535 185.295 219.539H188.111C189.432 219.539 190.396 218.417 190.065 217.266L185.995 203.14H186.726L190.88 217.676C190.959 217.975 190.969 218.288 190.908 218.591C190.848 218.894 190.718 219.18 190.53 219.425C190.341 219.67 190.099 219.868 189.821 220.005C189.544 220.141 189.239 220.212 188.929 220.211Z" fill="#D6EAF2"/>
<path d="M185.984 203.14V210.932H188.229L185.984 203.14Z" fill="#161D56"/>
<path d="M172.856 208.18H170.61L170.438 208.803H172.684L172.856 208.18Z" fill="#161D56"/>
<path d="M177.495 208.18H175.421L175.25 208.803H177.323L177.495 208.18Z" fill="#161D56"/>
<path d="M198.635 220.53C200.005 220.53 201.006 219.512 200.662 218.319L196.289 203.147" stroke="#161D56" stroke-width="0.403271" stroke-miterlimit="10"/>
<path d="M176.367 208.492H177.464C177.646 208.492 177.821 208.565 177.95 208.693C178.079 208.822 178.151 208.997 178.151 209.179V229.863C178.151 230.357 178.347 230.832 178.697 231.181C179.047 231.531 179.521 231.727 180.015 231.727C180.51 231.727 180.984 231.53 181.333 231.181C181.682 230.831 181.879 230.357 181.879 229.863V220.619C181.879 220.528 181.861 220.439 181.826 220.356C181.792 220.273 181.741 220.197 181.677 220.133C181.613 220.07 181.538 220.019 181.454 219.985C181.371 219.95 181.282 219.933 181.192 219.933H180.182" stroke="#639AD6" stroke-width="0.403271" stroke-miterlimit="10"/>
<path d="M265.492 178.996L231.535 175.032C231.054 174.977 230.613 174.738 230.305 174.365C229.996 173.993 229.844 173.515 229.88 173.032L232.5 136.076C232.535 135.636 232.723 135.223 233.031 134.907C233.34 134.592 233.75 134.396 234.189 134.353L269.56 130.629C269.775 130.605 269.994 130.629 270.199 130.699C270.405 130.77 270.592 130.885 270.747 131.037C270.902 131.189 271.021 131.374 271.096 131.577C271.171 131.781 271.2 131.999 271.18 132.215L267.147 177.652C267.1 178.047 266.902 178.409 266.593 178.661C266.283 178.912 265.888 179.032 265.492 178.996Z" fill="#6874A7"/>
<path d="M264.008 178.997L229.879 174.998C229.398 174.943 228.957 174.704 228.649 174.332C228.34 173.959 228.188 173.481 228.224 172.999L230.844 135.836C230.877 135.392 231.064 134.974 231.372 134.653C231.681 134.332 232.091 134.128 232.533 134.078L268.076 130.32C268.292 130.295 268.51 130.319 268.715 130.39C268.921 130.46 269.108 130.576 269.263 130.728C269.418 130.879 269.537 131.064 269.612 131.268C269.687 131.472 269.716 131.689 269.696 131.906L265.663 177.584C265.653 177.787 265.601 177.986 265.511 178.169C265.421 178.352 265.295 178.515 265.14 178.647C264.985 178.779 264.805 178.879 264.61 178.939C264.415 178.999 264.21 179.019 264.008 178.997Z" fill="#161D56"/>
<path d="M242.559 143.938L234.182 144.352C234.101 144.355 234.021 144.34 233.946 144.31C233.872 144.279 233.804 144.233 233.749 144.174C233.694 144.115 233.651 144.045 233.625 143.969C233.599 143.893 233.589 143.812 233.596 143.731L233.941 138.733C233.95 138.598 234.007 138.472 234.102 138.377C234.197 138.282 234.324 138.224 234.458 138.215L242.87 137.526C242.953 137.52 243.036 137.532 243.114 137.561C243.192 137.59 243.263 137.635 243.322 137.694C243.381 137.753 243.426 137.824 243.455 137.902C243.484 137.98 243.496 138.063 243.49 138.147L243.076 143.421C243.073 143.557 243.017 143.687 242.921 143.783C242.825 143.879 242.695 143.935 242.559 143.938Z" fill="#6874A7"/>
<path d="M246.937 147.627L246.006 159.658L232.492 159.245L232.665 156.694L234.526 154.211C234.609 154.097 234.715 154.002 234.837 153.932C234.96 153.862 235.096 153.819 235.236 153.806C235.376 153.793 235.518 153.81 235.651 153.856C235.784 153.903 235.906 153.977 236.009 154.074C236.121 154.183 236.258 154.263 236.408 154.309C236.558 154.356 236.717 154.366 236.871 154.339C237.026 154.312 237.172 154.249 237.298 154.155C237.423 154.061 237.525 153.938 237.594 153.798L239.077 150.73C239.152 150.578 239.265 150.447 239.404 150.351C239.543 150.254 239.705 150.194 239.874 150.177C240.042 150.16 240.213 150.186 240.369 150.252C240.525 150.319 240.661 150.424 240.766 150.557L242.524 152.764C242.627 152.891 242.76 152.991 242.91 153.056C243.061 153.12 243.225 153.147 243.388 153.133C243.551 153.12 243.709 153.066 243.847 152.978C243.984 152.889 244.098 152.768 244.179 152.626L246.937 147.627Z" fill="#995C73"/>
<path d="M233.858 171.206C233.722 171.194 233.596 171.13 233.506 171.027C233.416 170.924 233.37 170.791 233.375 170.655L233.651 166.794C233.664 166.658 233.728 166.532 233.83 166.442C233.933 166.352 234.067 166.305 234.203 166.311C234.274 166.315 234.344 166.334 234.407 166.366C234.471 166.398 234.527 166.444 234.572 166.499C234.618 166.554 234.651 166.617 234.671 166.686C234.69 166.755 234.695 166.826 234.685 166.897L234.41 170.758C234.405 170.825 234.387 170.89 234.356 170.949C234.326 171.008 234.283 171.06 234.231 171.102C234.18 171.144 234.12 171.175 234.056 171.193C233.991 171.211 233.924 171.215 233.858 171.206Z" fill="#995C73"/>
<path d="M238.336 171.103L238.75 165.622C238.762 165.486 238.826 165.36 238.929 165.27C239.032 165.18 239.165 165.133 239.301 165.139H239.37C239.441 165.143 239.511 165.162 239.575 165.194C239.638 165.227 239.694 165.272 239.74 165.327C239.785 165.382 239.818 165.446 239.838 165.514C239.857 165.583 239.862 165.655 239.853 165.725L239.439 171.207C239.435 171.278 239.416 171.347 239.384 171.411C239.352 171.474 239.307 171.531 239.252 171.576C239.197 171.621 239.133 171.655 239.064 171.674C238.996 171.694 238.924 171.699 238.853 171.689H238.784C238.655 171.655 238.54 171.579 238.459 171.473C238.378 171.367 238.335 171.237 238.336 171.103Z" fill="#6874A7"/>
<path d="M243.289 171.515L243.841 164.516C243.86 164.365 243.933 164.226 244.047 164.124C244.161 164.023 244.309 163.966 244.461 163.965C244.542 163.967 244.622 163.986 244.695 164.021C244.767 164.056 244.832 164.106 244.884 164.168C244.936 164.23 244.975 164.302 244.997 164.38C245.019 164.458 245.024 164.54 245.013 164.62L244.461 171.618C244.457 171.698 244.436 171.776 244.4 171.848C244.364 171.92 244.314 171.983 244.252 172.035C244.191 172.086 244.12 172.125 244.043 172.148C243.966 172.171 243.886 172.179 243.806 172.17C243.66 172.132 243.531 172.048 243.437 171.929C243.344 171.811 243.292 171.665 243.289 171.515Z" fill="#995C73"/>
<path d="M248.252 171.965L248.976 163.346C248.995 163.195 249.069 163.056 249.183 162.954C249.297 162.853 249.444 162.796 249.597 162.795H249.666C249.747 162.797 249.826 162.816 249.899 162.851C249.972 162.886 250.037 162.936 250.089 162.998C250.141 163.06 250.179 163.133 250.201 163.21C250.224 163.288 250.229 163.37 250.217 163.45L249.493 172.068C249.489 172.148 249.468 172.227 249.432 172.298C249.396 172.37 249.346 172.434 249.284 172.485C249.223 172.537 249.152 172.575 249.075 172.599C248.999 172.622 248.918 172.629 248.838 172.62H248.769C248.616 172.597 248.477 172.516 248.381 172.395C248.285 172.273 248.239 172.119 248.252 171.965Z" fill="#6874A7"/>
<path d="M253.212 172.447L254.073 162.208C254.093 162.056 254.166 161.917 254.28 161.816C254.394 161.714 254.541 161.658 254.694 161.656H254.832C254.913 161.658 254.992 161.678 255.065 161.713C255.138 161.748 255.203 161.798 255.255 161.86C255.307 161.922 255.346 161.994 255.368 162.072C255.39 162.15 255.395 162.231 255.383 162.311L254.522 172.55C254.517 172.63 254.496 172.708 254.46 172.78C254.424 172.852 254.374 172.915 254.313 172.967C254.252 173.018 254.18 173.057 254.104 173.08C254.027 173.103 253.946 173.111 253.867 173.102H253.763C253.606 173.082 253.461 173.003 253.359 172.882C253.257 172.761 253.204 172.605 253.212 172.447Z" fill="#D6EAF2"/>
<path d="M258.896 173.55H258.724C258.567 173.528 258.424 173.449 258.323 173.328C258.221 173.207 258.167 173.053 258.172 172.895L259.172 161.036C259.191 160.885 259.265 160.745 259.379 160.644C259.493 160.542 259.64 160.486 259.792 160.484H259.965C260.046 160.489 260.126 160.509 260.2 160.545C260.273 160.58 260.339 160.629 260.394 160.69C260.448 160.751 260.49 160.822 260.517 160.899C260.544 160.976 260.556 161.058 260.551 161.139L259.551 172.998C259.536 173.158 259.459 173.305 259.337 173.408C259.214 173.512 259.056 173.562 258.896 173.55Z" fill="#A56A77"/>
<path d="M259.153 149.281L260.635 151.867C259.394 153.522 257.843 154.556 256.222 154.556C253.051 154.556 250.879 150.591 251.293 145.696C251.706 140.801 254.533 136.56 257.774 136.319C259.429 136.181 260.842 137.112 261.807 138.698L259.877 141.421C259.325 140.456 258.463 139.904 257.463 139.939C255.533 140.077 253.775 142.593 253.533 145.593C253.292 148.592 254.637 150.971 256.533 150.936C257.464 150.936 258.394 150.316 259.153 149.281Z" fill="#D6EAF2"/>
<path d="M262.967 145.247C262.726 147.833 261.864 150.211 260.623 151.9L259.141 149.315C259.955 148.145 260.432 146.773 260.52 145.35C260.672 144.009 260.42 142.652 259.796 141.455L261.726 138.731C262.691 140.317 263.174 142.627 262.967 145.247Z" fill="#995C73"/>
<path d="M265.107 134.112C265.142 133.802 265.004 133.561 264.763 133.561C264.638 133.598 264.529 133.675 264.454 133.782C264.379 133.888 264.342 134.017 264.349 134.147C264.315 134.457 264.452 134.698 264.659 134.698C264.866 134.698 265.073 134.457 265.107 134.112Z" fill="#A56A77"/>
<path d="M267.211 133.938C267.246 133.628 267.073 133.387 266.867 133.387C266.737 133.431 266.623 133.514 266.543 133.625C266.463 133.736 266.419 133.87 266.418 134.007C266.384 134.318 266.556 134.559 266.763 134.559C266.97 134.559 267.177 134.249 267.211 133.938Z" fill="#A56A77"/>
<path d="M362.235 239.147L349.543 255.98C349.412 256.155 349.248 256.303 349.061 256.415C348.873 256.527 348.665 256.6 348.448 256.632C348.232 256.663 348.011 256.651 347.8 256.597C347.588 256.543 347.389 256.447 347.214 256.316L326.52 240.744C326.344 240.613 326.197 240.449 326.085 240.261C325.973 240.074 325.899 239.866 325.868 239.649C325.837 239.433 325.849 239.212 325.903 239.001C325.957 238.789 326.052 238.59 326.184 238.415L338.876 221.581C339.007 221.406 339.171 221.258 339.359 221.147C339.546 221.035 339.755 220.961 339.971 220.93C340.187 220.899 340.408 220.91 340.619 220.965C340.831 221.019 341.03 221.114 341.205 221.245L361.873 236.84C362.052 236.964 362.204 237.124 362.32 237.309C362.436 237.494 362.513 237.7 362.547 237.916C362.581 238.131 362.57 238.352 362.517 238.563C362.463 238.775 362.368 238.973 362.235 239.147Z" fill="#D6EAF2"/>
<path d="M341.952 228.454L333.685 239.408C333.621 239.494 333.541 239.566 333.448 239.62C333.356 239.674 333.253 239.709 333.147 239.723C333.041 239.736 332.933 239.728 332.83 239.699C332.727 239.67 332.63 239.621 332.547 239.554C332.461 239.49 332.389 239.409 332.335 239.317C332.28 239.224 332.246 239.122 332.232 239.016C332.218 238.909 332.226 238.801 332.255 238.698C332.284 238.595 332.334 238.499 332.401 238.415L340.668 227.462C340.732 227.376 340.813 227.303 340.905 227.249C340.997 227.195 341.1 227.16 341.206 227.147C341.312 227.133 341.42 227.141 341.523 227.17C341.627 227.199 341.723 227.249 341.806 227.316C341.964 227.456 342.066 227.648 342.093 227.858C342.12 228.067 342.07 228.279 341.952 228.454Z" fill="#995C73"/>
<path d="M335.944 242.149L345.181 229.885" stroke="#63737A" stroke-width="0.62053" stroke-linecap="round" stroke-linejoin="round"/>
<path d="M338.015 243.7L347.252 231.436" stroke="#63737A" stroke-width="0.62053" stroke-linecap="round" stroke-linejoin="round"/>
<path d="M351.225 245.557L347.822 250.082C347.759 250.168 347.678 250.24 347.586 250.295C347.493 250.349 347.391 250.384 347.284 250.397C347.178 250.411 347.07 250.403 346.967 250.374C346.864 250.345 346.768 250.295 346.684 250.228L342.159 246.826C342.073 246.762 342.001 246.681 341.947 246.589C341.893 246.496 341.858 246.394 341.844 246.288C341.831 246.181 341.839 246.073 341.868 245.97C341.897 245.867 341.946 245.771 342.014 245.687L345.416 241.163C345.48 241.077 345.56 241.004 345.653 240.95C345.745 240.896 345.848 240.861 345.954 240.847C346.06 240.834 346.168 240.842 346.271 240.871C346.374 240.9 346.471 240.95 346.554 241.017L351.079 244.419C351.237 244.559 351.339 244.752 351.366 244.961C351.392 245.17 351.342 245.382 351.225 245.557Z" fill="#995C73"/>
<path d="M347.249 238.678L350.708 234.06" stroke="#63737A" stroke-width="0.62053" stroke-linecap="round" stroke-linejoin="round"/>
<path d="M349.477 240.363L352.985 235.75" stroke="#63737A" stroke-width="0.62053" stroke-linecap="round" stroke-linejoin="round"/>
<path d="M351.721 242.077L353.824 239.274" stroke="#63737A" stroke-width="0.62053" stroke-linecap="round" stroke-linejoin="round"/>
<path d="M335.43 227.448L330.921 233.442C330.846 233.538 330.749 233.613 330.638 233.661C330.527 233.709 330.406 233.729 330.285 233.719C330.165 233.708 330.049 233.668 329.948 233.601C329.847 233.535 329.764 233.444 329.707 233.337L329.538 233.029C329.477 232.905 329.45 232.768 329.462 232.631C329.474 232.493 329.524 232.362 329.605 232.252L333.921 226.509C334 226.4 334.109 226.316 334.235 226.266C334.361 226.216 334.498 226.203 334.63 226.228L334.966 226.306C335.088 226.326 335.204 226.377 335.3 226.454C335.397 226.531 335.473 226.632 335.519 226.746C335.566 226.861 335.582 226.986 335.566 227.109C335.551 227.231 335.504 227.348 335.43 227.448Z" fill="#6874A7"/>
</g>
<path d="M367.514 176.955C365.391 192.199 345.306 222.646 343.614 225.141C341.725 227.929 338.384 225.98 339.272 222.282C340.281 218.074 345.677 183.565 350.9 173.887C356.562 147.371 370.926 115.569 375.236 111.91C381.535 106.56 386.358 108.11 387.515 121.398C388.665 134.583 374.217 166.873 367.514 176.955Z" fill="#B57E6F"/>
<path d="M379.891 151.783C379.183 153.531 378.475 155.265 377.732 156.96C377.732 156.96 361.56 146.801 360.336 142.565C360.671 141.669 361.007 140.784 361.344 139.911C368.195 146.55 379.282 149.65 379.282 149.65C379.506 150.357 379.709 151.069 379.891 151.783Z" fill="#3A193F"/>
<path d="M341.084 219.664C339.594 220.191 332.633 222.495 331.267 223.932C329.901 225.368 328.918 230.032 328.946 230.546C328.974 231.059 329.215 233.844 329.215 233.844C329.488 233.821 329.753 233.745 329.996 233.62C330.239 233.495 330.455 233.322 330.632 233.113C330.808 232.904 330.941 232.662 331.024 232.401C331.106 232.14 331.136 231.866 331.112 231.593C331.02 229.116 333.698 227.184 335.262 226.561C335.91 226.299 337.502 226.561 337.708 227.485C337.913 228.408 335.443 229.505 335.001 230.174C334.325 231.197 334.93 232.375 334.93 232.375C334.93 232.375 338.723 230.546 339.452 230.199C340.181 229.852 344.01 225.882 345.309 222.693C346.607 219.505 344.537 218.447 341.084 219.664Z" fill="#B57E6F"/>
<path d="M418.203 261.846C418.699 266.054 423.132 277.77 424.513 282.647C427.697 293.889 440.582 342.684 444.46 355.052C449.283 370.427 451.658 361.368 451.658 355.643C451.658 349.917 459.977 312.018 454.8 293.178C452.001 282.983 446.53 272.919 446.049 255.526L418.203 261.846Z" fill="#B57E6F"/>
<path d="M446.137 257.696C436.413 263.216 425.921 265.594 419.364 266.606C419.081 265.52 418.302 262.621 418.203 261.846L446.049 255.526C446.07 256.262 446.1 256.985 446.137 257.696Z" fill="#3A193F"/>
<path d="M455.378 327.486C453.963 340.791 451.662 352.638 451.662 355.643C451.662 361.368 449.288 370.427 444.465 355.052C442.915 350.098 439.918 339.322 436.68 327.45C437.78 327.804 445.02 329.899 455.378 327.486Z" fill="#242854"/>
<path d="M424.51 365.987C424.51 365.987 423.095 361.351 427.695 359.688C431.315 358.378 441.673 356.029 442.943 352.065C442.943 352.065 445.378 354.412 452.027 352.646C453.645 354.385 454.857 356.461 455.576 358.725C456.294 360.99 456.501 363.385 456.181 365.739L424.51 365.987Z" fill="#995C73"/>
<path d="M447.834 353.354C447.898 352.795 447.948 346.592 445.976 345.608C444.005 344.624 439.515 345.544 439.635 346.592C439.755 347.639 442.066 352.752 442.636 352.883C443.206 353.014 447.834 353.354 447.834 353.354Z" fill="#995C73"/>
<path d="M456.461 365.757H424.288C423.822 365.757 423.445 366.134 423.445 366.599V366.903C423.445 367.369 423.822 367.746 424.288 367.746H456.461C456.926 367.746 457.303 367.369 457.303 366.903V366.599C457.303 366.134 456.926 365.757 456.461 365.757Z" fill="#995C73"/>
<path d="M443.613 358.046C443.613 358.046 442.675 354.695 440.718 354.688C438.315 354.688 437.852 356.057 437.852 356.057" stroke="white" stroke-width="1.0616" stroke-linecap="round" stroke-linejoin="round"/>
<path d="M439.664 359.423C439.664 359.423 439.112 356.238 437.166 356.065C436.579 355.993 435.984 356.083 435.445 356.323C434.905 356.564 434.441 356.947 434.102 357.431" stroke="white" stroke-width="1.0616" stroke-linecap="round" stroke-linejoin="round"/>
<path d="M404.224 264.547C403.612 265.984 366.714 256.472 367.464 253.096C367.857 251.327 378.473 251.359 388.205 254.257C397.062 256.897 405.197 262.23 404.224 264.547Z" fill="#32323C"/>
<path d="M374.105 252.533C372.36 252.912 372.445 264.731 374.105 279.693C375.765 294.654 379.452 350.618 377.06 354.511C374.668 358.403 386.108 355.063 386.48 353.032C386.851 351 402.121 318.636 399.045 298.479C395.9 277.856 400.74 264.009 401.459 261.79C402.177 259.572 386.986 249.734 374.105 252.533Z" fill="#B57E6F"/>
<path d="M401.458 261.799C401.278 262.358 400.836 263.653 400.326 265.606C391.125 256.76 379.766 255.188 373.078 255.16C373.287 253.575 373.623 252.655 374.09 252.552C386.989 249.735 402.177 259.562 401.458 261.799Z" fill="#3A193F"/>
<path d="M395.749 326.909V326.931C391.995 340.325 386.697 351.846 386.485 353.032C386.131 355.063 374.662 358.389 377.065 354.511C378.151 352.742 377.989 340.293 377.33 325.802C377.327 325.791 382.529 329.135 395.749 326.909Z" fill="#242854"/>
<path d="M357.198 365.99C357.198 365.99 355.782 361.354 360.382 359.691C364.002 358.381 376.328 356.032 377.598 352.068C377.598 352.068 380.033 354.415 386.682 352.649C386.682 352.649 391.116 359.216 390.047 365.742L357.198 365.99Z" fill="#995C73"/>
<path d="M380.522 353.357C380.585 352.798 380.635 346.594 378.664 345.611C376.693 344.627 374.17 345.547 374.293 346.594C374.417 347.642 376.721 352.755 377.291 352.886C377.86 353.017 380.522 353.357 380.522 353.357Z" fill="#995C73"/>
<path d="M390.327 365.76H356.975C356.51 365.76 356.133 366.137 356.133 366.602V366.906C356.133 367.371 356.51 367.749 356.975 367.749H390.327C390.792 367.749 391.169 367.371 391.169 366.906V366.602C391.169 366.137 390.792 365.76 390.327 365.76Z" fill="#995C73"/>
<path d="M374.926 358.44C374.926 358.44 374.572 354.498 372.625 354.491C370.223 354.491 370.743 356.448 370.743 356.448" stroke="white" stroke-width="1.0616" stroke-linecap="round" stroke-linejoin="round"/>
<path d="M370.386 360.018C370.386 360.018 370.033 356.075 368.086 356.068C365.684 356.068 366.204 358.025 366.204 358.025" stroke="white" stroke-width="1.0616" stroke-linecap="round" stroke-linejoin="round"/>
<path d="M379.803 192.901C377.061 200.537 375.766 206.181 373.366 226.129C371.155 244.491 367.641 249.403 367.453 253.097C367.453 253.097 390.175 248.663 404.213 264.548L409.086 253.097L412.83 262.241C412.83 262.241 434.132 264.548 454.816 250.326C454.816 250.326 448.354 243.309 446.461 227.831C444.501 211.794 441.726 200.704 438.297 194.115C434.868 187.526 380.744 190.268 379.803 192.901Z" fill="#6874A7"/>
<path d="M409.07 253.096C407.888 249.203 403.086 229.27 402.346 228.714C401.607 228.159 396.805 225.392 396.805 225.392" stroke="#174B64" stroke-width="1.0616" stroke-linecap="round" stroke-linejoin="round"/>
<path d="M440.464 199.129C436.819 197.048 426.373 193.272 402.473 197.869C385.841 201.054 380.533 197.554 379.047 195.059C379.284 194.352 379.535 193.644 379.801 192.901C380.745 190.268 434.87 187.526 438.295 194.115C439.126 195.737 439.851 197.412 440.464 199.129Z" fill="#3A193F"/>
<path d="M425.062 101.012C430.483 102.919 439.666 106.429 442.89 108.832C446.114 111.235 461.369 130.439 461.369 130.439C461.369 130.439 454.645 144.477 439.319 149.835C439.319 149.835 432.858 165.317 438.856 194.33C438.856 194.33 434.669 189.829 403.416 197.112C381.975 202.108 376.908 192.511 377.039 191.025C377.169 189.539 385.121 168.491 379.289 149.651C379.289 149.651 363.436 145.217 357.93 135.613C357.93 135.613 367.396 115.825 372.067 112.049C376.738 108.273 389.357 104.706 393.741 103.351C398.126 101.995 425.062 101.012 425.062 101.012Z" fill="#242854"/>
<path d="M425.776 101.404C425.776 101.404 409.399 110.959 395.344 102.958C395.344 102.958 403.129 98.6086 404.166 90.7562C404.177 90.7123 404.183 90.6671 404.183 90.6218L404.215 90.3387C404.219 90.3105 404.219 90.282 404.215 90.2538C404.215 90.0379 404.251 89.822 404.258 89.6026C404.258 89.3266 404.258 89.0435 404.258 88.7569L418.692 85.4199C418.692 85.4199 418.692 86.432 418.816 87.9571C419.219 91.7789 420.582 98.8492 425.776 101.404Z" fill="#B57E6F"/>
<path d="M419.036 90.137C415.437 98.5343 406.046 97.6461 402.273 96.2235C403.264 94.5456 403.908 92.6868 404.17 90.7562C404.181 90.7123 404.187 90.6671 404.188 90.6218C404.188 90.5298 404.213 90.4342 404.22 90.3387C404.223 90.3105 404.223 90.282 404.22 90.2538C404.22 90.0379 404.255 89.822 404.262 89.6026C404.262 89.3231 404.262 89.04 404.262 88.7569L418.696 85.4199C418.696 85.4199 418.895 88.6083 419.036 90.137Z" fill="#3A193F"/>
<path d="M420.176 85.7515C419.908 86.8873 419.416 87.9581 418.729 88.9009C417.947 89.9625 417.642 90.5888 416.959 91.0241C415.19 92.1848 405.897 95.2705 402.26 90.1253C400.551 87.7013 399.56 78.4229 400.377 71.0659C401.255 63.2101 417.494 66.6178 420.165 73.4085C421.843 77.6691 420.845 82.8462 420.176 85.7515Z" fill="#B57E6F"/>
<path d="M411.063 70.6692C410.423 70.7541 399.92 73.1746 396.555 69.0626C393.19 64.9507 398.211 61.1042 403.186 61.5854C403.186 61.5854 403.54 57.5726 409.602 56.3871C415.664 55.2016 418.389 57.6398 418.413 59.9258C418.413 59.9258 422.78 58.2095 426.039 60.8423C429.298 63.4751 428.046 65.4673 427.908 68.1355C427.77 70.8037 429.818 70.0995 429.804 72.888C429.804 75.8604 426.591 75.864 424.001 81.7346C423.006 83.9852 421.255 84.9548 421.188 83.9251C421.12 82.8953 421.046 82.7609 420.611 82.177C419.049 79.7286 418.175 76.9051 418.081 74.0026C417.932 69.6041 416.704 69.9367 411.063 70.6692Z" fill="#3A193F"/>
<path d="M416.786 69.8555C414.071 70.0466 406.06 74.753 397.836 71.5186" stroke="#3A193F" stroke-width="1.0616" stroke-linecap="round" stroke-linejoin="round"/>
<path d="M420.894 84.8614C423.14 84.8614 424.96 83.041 424.96 80.7954C424.96 78.5499 423.14 76.7295 420.894 76.7295C418.649 76.7295 416.828 78.5499 416.828 80.7954C416.828 83.041 418.649 84.8614 420.894 84.8614Z" fill="#B57E6F"/>
<path d="M430.633 150.925C430.633 150.925 441.858 174.281 458.436 178.711C463.978 180.194 469.36 175.7 469.891 166.219C470.422 156.739 457.555 136.339 457.555 136.339C447.714 147.663 439.32 149.835 439.32 149.835L434.787 147.5L430.633 150.925Z" fill="#B57E6F"/>
<path d="M429.132 150.27C427.614 149.403 423.155 144.371 422.447 142.485C421.739 140.599 422.596 135.408 422.801 134.948C423.006 134.488 424.323 131.682 424.323 131.682C424.742 132.093 425.045 132.609 425.201 133.176C425.357 133.742 425.361 134.34 425.211 134.909C424.915 136.048 424.918 137.243 425.22 138.38C425.522 139.517 426.113 140.557 426.934 141.399C427.437 141.905 429.967 142.16 430.519 141.399C431.071 140.638 429.769 138.621 429.617 137.828C429.386 136.618 430.399 135.797 430.399 135.797L433.739 139.654C434.277 140.274 434.939 145.475 434.914 148.915C434.889 152.355 432.363 152.1 429.132 150.27Z" fill="#B57E6F"/>
<path d="M460.115 140.617C459.984 140.787 451.725 151.233 443.688 152.09L439.336 149.832C439.336 149.832 447.73 147.652 457.571 136.339V136.364V136.388L460.027 140.515L460.115 140.617Z" fill="#3A193F"/>
<path d="M443.5 151.499C443.5 151.499 453.741 155.77 458.009 159.776" stroke="#9E2923" stroke-width="0.707735" stroke-linecap="round" stroke-linejoin="round"/>
<path d="M408.961 73.8003C408.961 73.8003 410.298 73.0506 412.225 74.2876" stroke="#3A193F" stroke-width="0.937116" stroke-linecap="round" stroke-linejoin="round"/>
<path d="M410.778 76.7781C410.801 76.2576 410.495 75.8211 410.093 75.8031C409.691 75.7851 409.347 76.1924 409.324 76.7129C409.3 77.2333 409.607 77.6699 410.008 77.6879C410.41 77.7059 410.754 77.2986 410.778 76.7781Z" fill="#3A193F"/>
<path d="M404.161 76.7781C404.184 76.2576 403.877 75.8211 403.476 75.8031C403.074 75.785 402.73 76.1924 402.706 76.7129C402.683 77.2333 402.99 77.6699 403.391 77.6879C403.793 77.7059 404.137 77.2986 404.161 76.7781Z" fill="#3A193F"/>
<path d="M406.328 76.8008L406.062 81.5676L407.677 82.1517" stroke="#3A193F" stroke-width="0.937116" stroke-linecap="round" stroke-linejoin="round"/>
<path d="M410.26 83.1016C410.26 83.1016 409.342 85.0102 407.68 84.8009" stroke="#3A193F" stroke-width="0.937116" stroke-linecap="round" stroke-linejoin="round"/>
<defs>
<clipPath id="clip0_3260_6011">
<rect width="365.423" height="403" fill="white"/>
</clipPath>
</defs>
</svg>
