<svg width="440" height="415" viewBox="0 0 440 415" fill="none" xmlns="http://www.w3.org/2000/svg">
<path d="M246.975 285.682V287.173C246.975 287.696 246.872 288.215 246.671 288.698C246.471 289.182 246.177 289.621 245.807 289.991C245.437 290.361 244.997 290.654 244.513 290.854C244.03 291.054 243.511 291.157 242.988 291.156H134.63C128.939 291.156 123.417 289.217 118.976 285.658C114.534 282.099 111.439 277.132 110.199 271.578L90.8084 184.957C90.3477 182.897 90.3558 180.76 90.832 178.704C91.3083 176.648 92.2405 174.726 93.5599 173.078C94.8792 171.431 96.5519 170.101 98.4543 169.188C100.357 168.274 102.44 167.799 104.551 167.799H142.121C146.4 167.797 150.552 169.254 153.892 171.929C157.231 174.604 159.56 178.338 160.492 182.514L178.214 261.698C179.484 267.373 182.649 272.446 187.189 276.081C191.728 279.716 197.37 281.696 203.185 281.695H242.988C244.045 281.695 245.059 282.115 245.807 282.863C246.555 283.611 246.975 284.625 246.975 285.682Z" fill="#6874A7"/>
<path d="M130.418 291.613H177.201C181.918 291.618 186.44 293.498 189.772 296.837C193.104 300.176 194.974 304.702 194.969 309.42V370.228C194.972 372.564 194.514 374.878 193.623 377.037C192.731 379.196 191.423 381.159 189.773 382.812C188.123 384.466 186.164 385.778 184.007 386.675C181.849 387.571 179.537 388.033 177.201 388.036H121.664" fill="#6874A7"/>
<path d="M130.418 291.613H177.201C181.918 291.618 186.44 293.498 189.772 296.837C193.104 300.176 194.974 304.702 194.969 309.42V370.228C194.972 372.564 194.514 374.878 193.623 377.037C192.731 379.196 191.423 381.159 189.773 382.812C188.123 384.466 186.164 385.778 184.007 386.675C181.849 387.571 179.537 388.033 177.201 388.036H121.664" stroke="#7F2A3C" stroke-width="1.06501" stroke-miterlimit="10"/>
<path d="M154.141 291.613H216.49C221.205 291.622 225.723 293.503 229.051 296.842C232.379 300.181 234.246 304.705 234.24 309.42V370.228C234.247 374.943 232.381 379.468 229.052 382.807C225.723 386.146 221.205 388.027 216.49 388.036H171.93" stroke="#6874A7" stroke-width="1.06501" stroke-miterlimit="10"/>
<path d="M194.992 354.013H234.266" stroke="#6874A7" stroke-width="1.06501" stroke-miterlimit="10"/>
<path d="M204.567 138.747C204.567 138.747 222.704 139.957 231.547 156.557C240.39 173.157 251.427 195.806 251.427 195.806C251.427 195.806 282.583 194.933 305.633 209.321V219.666H239.371C231.139 219.666 204.581 188.234 203.03 167.871C201.478 147.508 204.567 138.747 204.567 138.747Z" fill="#242854"/>
<path d="M300.462 219.576C299.131 219.299 300.107 215.028 300.885 212.394C301.318 210.942 302.358 210.204 303.725 209.575C306.472 208.326 311.222 206.913 313.906 207.516C317.84 208.404 320.367 210.889 322.828 213.835C323.538 214.68 326.992 218.731 326.992 219.814L300.462 219.576Z" fill="#A57574"/>
<path d="M170.411 131.931C158.891 131.97 135.014 156 139.217 217.092C142.316 262.075 156.332 280.993 159.431 279.669C162.53 278.345 199.937 245.564 205.028 227.856C210.118 210.149 237.163 149.361 201.541 137.685C176.684 129.541 174.096 131.92 170.411 131.931Z" fill="#3D4165"/>
<path d="M286.763 388.324H246.182C246.14 387.703 246.126 387.114 246.136 386.549H286.809C286.855 387.141 286.839 387.736 286.763 388.324Z" fill="white"/>
<path d="M250.312 370.167C250.457 374.593 246.18 377.398 246.18 386.546H286.76C286.76 386.546 287.35 378.871 279.234 377.103C271.119 375.335 263.738 372.971 263 370.167H250.312Z" fill="#7F2A3C" fill-opacity="0.7"/>
<path d="M263.297 378.438L267 372.954" stroke="white" stroke-width="1.06501" stroke-miterlimit="10" stroke-linecap="round"/>
<path d="M266.172 379.103L269.654 374.066" stroke="white" stroke-width="1.06501" stroke-miterlimit="10" stroke-linecap="round"/>
<path d="M269.953 379.327L272.768 374.733" stroke="white" stroke-width="1.06501" stroke-miterlimit="10" stroke-linecap="round"/>
<path d="M206.678 231.137C206.678 231.137 268.615 227.264 283.667 244.982C298.72 262.701 269.499 325.845 266.549 364.211C266.549 364.211 251.728 365.687 245.71 364.211C239.693 362.734 234.453 297.143 249.615 279.137C249.615 279.137 191.97 292.397 169.498 275.672C147.026 258.948 197.327 231.46 206.678 231.137Z" fill="#242854"/>
<path d="M245.858 371.581C247.988 372.209 254.339 373.913 266.903 371.914C267.553 371.811 268.032 370.807 268.032 370.139V365.265C268.032 365.074 267.991 364.885 267.911 364.712C267.832 364.538 267.716 364.383 267.572 364.258C267.427 364.133 267.257 364.041 267.074 363.988C266.891 363.934 266.698 363.92 266.509 363.948C255.639 365.524 248.5 364.658 245.514 363.991C245.306 363.945 245.091 363.95 244.886 364.005C244.68 364.059 244.491 364.162 244.333 364.304C244.175 364.446 244.054 364.624 243.978 364.823C243.902 365.021 243.875 365.235 243.899 365.446L244.914 370.441C244.942 370.703 245.047 370.95 245.215 371.153C245.383 371.355 245.607 371.504 245.858 371.581Z" fill="#4E577D"/>
<path d="M378.458 326.892L346.267 351.597C345.812 351.043 345.4 350.496 345.031 349.967L377.095 325.355C377.607 325.814 378.064 326.33 378.458 326.892Z" fill="#7F2A3C" fill-opacity="0.7"/>
<path d="M338.242 334.532C341.054 337.964 339.368 342.785 344.934 350.035L377.126 325.326C377.126 325.326 372.923 318.883 365.411 322.419C357.899 325.955 350.603 328.575 348.31 326.8L338.242 334.532Z" fill="#7F2A3C" fill-opacity="0.7"/>
<path d="M353.655 332.803L353.258 326.41" stroke="white" stroke-width="1.06501" stroke-miterlimit="10" stroke-linecap="round"/>
<path d="M356.109 331.245L355.711 325.522" stroke="white" stroke-width="1.06501" stroke-miterlimit="10" stroke-linecap="round"/>
<path d="M358.53 329.69L358.133 324.631" stroke="white" stroke-width="1.06501" stroke-miterlimit="10" stroke-linecap="round"/>
<path d="M159.174 277.446C160.101 282.441 212.815 294.554 268.888 259.138C268.888 259.138 273.83 300.088 330.492 331.076C330.492 331.076 342.971 325.751 346.361 318.602C346.361 318.602 310.151 275.369 295.915 235.672C289.94 219.005 214.75 227.731 203.745 231.139C192.74 234.547 155.042 255.173 159.174 277.446Z" fill="#242854"/>
<path d="M163.612 280.243C160.878 279.277 159.327 278.262 159.174 277.442C155.465 257.455 185.47 238.789 199.602 232.711C185.622 240.848 161.766 261.786 163.612 280.243Z" fill="#383C4D"/>
<path d="M334.599 337.133C336.675 336.331 342.476 333.466 351.227 324.232C351.446 324.001 351.575 323.7 351.591 323.382C351.607 323.065 351.51 322.752 351.316 322.5L348.348 318.634C348.232 318.482 348.084 318.357 347.916 318.268C347.747 318.178 347.561 318.126 347.371 318.114C347.18 318.103 346.989 318.132 346.811 318.201C346.633 318.27 346.472 318.376 346.339 318.513C338.674 326.383 332.827 329.759 330.062 331.062C329.87 331.153 329.703 331.287 329.574 331.455C329.445 331.622 329.358 331.818 329.319 332.026C329.281 332.234 329.292 332.449 329.353 332.651C329.413 332.854 329.521 333.04 329.668 333.192L333.164 336.81C333.345 336.999 333.578 337.13 333.833 337.187C334.088 337.245 334.354 337.226 334.599 337.133Z" fill="#6874A7"/>
<path d="M173.509 145.151C185.487 149.127 200.166 191.114 200.166 191.114C200.166 191.114 221.211 195.1 249.767 207.053C249.767 207.053 251.297 214.576 247.534 219.667C247.534 219.667 190.869 220.11 185.338 219.667C179.807 219.223 153.799 197.823 147.38 174.151C140.962 150.48 158.879 140.291 173.509 145.151Z" fill="#242854"/>
<path d="M249.651 209.289C249.651 209.289 258.025 204.862 261.962 205.738C265.899 206.615 270.617 210.162 271.111 211.156C271.604 212.15 275.044 216.96 275.044 218.043C275.044 219.126 263.915 218.732 262.349 218.732C260.784 218.732 250.492 218.895 248.504 218.483C246.516 218.071 249.651 209.289 249.651 209.289Z" fill="#A57574"/>
<path d="M262.348 218.731C263.913 218.731 275.043 219.125 275.043 218.042C275.043 216.959 271.599 212.138 271.109 211.155C270.619 210.172 265.894 206.629 261.961 205.745C261.961 205.745 266.817 212.49 262.348 218.731Z" fill="#A57574"/>
<path d="M247.537 219.666C247.537 219.666 190.871 220.11 185.34 219.666C179.809 219.222 153.801 197.823 147.383 174.151" stroke="#242854" stroke-width="1.06501" stroke-miterlimit="10"/>
<path d="M173.523 145.151C185.501 149.127 200.181 191.113 200.181 191.113C200.181 191.113 214.306 193.79 235.117 201.33" stroke="#242854" stroke-width="1.06501" stroke-miterlimit="10"/>
<path d="M317.275 219.748V217.973C317.276 217.486 317.177 217.003 316.983 216.556C316.79 216.109 316.507 215.706 316.151 215.373C315.795 215.04 315.375 214.784 314.916 214.62C314.457 214.457 313.969 214.39 313.483 214.423L248.691 218.463C248.363 218.487 248.057 218.634 247.833 218.875C247.609 219.116 247.484 219.433 247.484 219.762L317.275 219.748Z" fill="#161D56"/>
<path d="M177.28 104.881C177.28 104.881 175.86 122.798 165.117 134.148C165.117 134.148 177.148 143.687 190.216 136.569L191.636 104.949L177.28 104.881Z" fill="#A57574"/>
<path d="M208.696 100.983C208.696 100.983 205.501 108.793 206.651 123.203C207.802 137.613 184.915 130.101 184.528 120.139C184.141 110.178 185.692 101.104 188.28 100.969C190.868 100.834 208.696 100.983 208.696 100.983Z" fill="#A57574"/>
<path d="M173.82 116.578C173.82 116.578 177.274 108.385 174.846 99.2543C173.071 92.5802 180.257 88.7 186.338 92.2607C186.338 92.2607 209.239 79.6438 214.404 93.4287C220.631 110.043 190.477 101.636 189.959 102.286C189.44 102.936 187.719 115.865 190.953 120.263C194.187 124.662 197.765 120.239 202.419 119.937C207.24 119.621 206.651 122.812 206.651 122.812C206.651 122.812 208.092 130.562 208.611 133.537C209.129 136.512 190.687 141.535 185.819 133.981C181.403 127.129 184.222 113.273 182.415 112.12C178.666 109.73 175.627 113.955 177.708 115.638C177.708 115.638 175.425 117.019 173.82 116.578Z" fill="#242854"/>
<path d="M212.947 103.735C205.847 107.555 191.078 102.762 189.758 101.896L212.947 103.735Z" fill="#242854"/>
<path d="M179.906 89.3969C182.391 89.2016 185.089 90.1779 186.335 92.4854L179.906 89.3969Z" fill="#4E2556"/>
<path d="M197.657 113.487C198.253 113.487 198.737 112.881 198.737 112.134C198.737 111.387 198.253 110.782 197.657 110.782C197.061 110.782 196.578 111.387 196.578 112.134C196.578 112.881 197.061 113.487 197.657 113.487Z" fill="#242854"/>
<path d="M205.328 113.487C205.781 113.487 206.148 112.881 206.148 112.134C206.148 111.387 205.781 110.782 205.328 110.782C204.875 110.782 204.508 111.387 204.508 112.134C204.508 112.881 204.875 113.487 205.328 113.487Z" fill="#242854"/>
<path d="M197.232 116.464C199.547 116.464 201.424 114.44 201.424 111.944C201.424 109.449 199.547 107.425 197.232 107.425C194.916 107.425 193.039 109.449 193.039 111.944C193.039 114.44 194.916 116.464 197.232 116.464Z" stroke="white" stroke-width="1.06501" stroke-miterlimit="10"/>
<path d="M206.969 116.464C208.924 116.464 210.508 114.44 210.508 111.944C210.508 109.449 208.924 107.425 206.969 107.425C205.014 107.425 203.43 109.449 203.43 111.944C203.43 114.44 205.014 116.464 206.969 116.464Z" stroke="white" stroke-width="1.06501" stroke-miterlimit="10"/>
<path d="M201.422 111.749H203.442" stroke="white" stroke-width="1.06501" stroke-miterlimit="10"/>
<path d="M192.81 111.525L180.835 111.358C180.074 111.359 179.321 111.517 178.623 111.823C177.926 112.128 177.299 112.574 176.781 113.133" stroke="white" stroke-width="1.06501" stroke-miterlimit="10"/>
<path d="M410.265 219.99V388.336H398.941V231.108H33.3715V388.336H22.0469V219.99H410.265Z" fill="#161D56"/>
<path d="M397.358 194.012H277.849C276.969 194.011 276.101 193.808 275.313 193.418C274.524 193.028 273.836 192.462 273.302 191.763C272.767 191.063 272.401 190.251 272.232 189.387C272.063 188.524 272.095 187.633 272.325 186.784L292.152 113.759C293.217 109.901 296.7 106.773 300.697 106.773H420.206C423.98 106.773 426.72 110.809 425.73 114.452L405.903 187.476C405.394 189.353 404.281 191.009 402.737 192.19C401.192 193.372 399.302 194.012 397.358 194.012Z" fill="#D6EAF2"/>
<path d="M397.36 194.011H281.274C280.418 194.01 279.575 193.812 278.808 193.432C278.041 193.052 277.372 192.501 276.853 191.821C276.334 191.141 275.979 190.35 275.814 189.51C275.65 188.671 275.682 187.804 275.906 186.979L295.151 115.91C295.645 114.086 296.726 112.475 298.227 111.326C299.728 110.177 301.565 109.554 303.455 109.552H419.541C420.397 109.553 421.241 109.752 422.007 110.132C422.774 110.511 423.443 111.063 423.963 111.743C424.482 112.423 424.838 113.213 425.002 114.053C425.167 114.893 425.136 115.759 424.912 116.585L405.65 187.653C405.156 189.475 404.078 191.085 402.58 192.233C401.082 193.382 399.248 194.007 397.36 194.011Z" fill="#D4D1F4"/>
<path d="M397.36 194.011H281.274C280.418 194.01 279.575 193.812 278.808 193.432C278.041 193.052 277.372 192.501 276.853 191.821C276.334 191.141 275.979 190.35 275.814 189.51C275.65 188.671 275.682 187.804 275.906 186.979L295.151 115.91C295.645 114.086 296.726 112.475 298.227 111.326C299.728 110.177 301.565 109.554 303.455 109.552H419.541C420.397 109.553 421.241 109.752 422.007 110.132C422.774 110.511 423.443 111.063 423.963 111.743C424.482 112.423 424.838 113.213 425.002 114.053C425.167 114.893 425.136 115.759 424.912 116.585L405.65 187.653C405.156 189.475 404.078 191.085 402.58 192.233C401.082 193.382 399.248 194.007 397.36 194.011Z" fill="#161D56"/>
<path d="M371.159 213.536L359.622 173.47H332.609L343.359 210.778C344.236 213.816 341.687 216.781 338.201 216.781H330.745C330.519 216.769 330.297 216.848 330.128 216.999C329.959 217.151 329.857 217.363 329.844 217.59V219.149C329.857 219.375 329.959 219.588 330.128 219.739C330.297 219.891 330.519 219.97 330.745 219.958H365.791C369.423 219.958 372.068 216.688 371.159 213.536Z" fill="#7F2A3C" fill-opacity="0.7"/>
<path d="M340.376 218.556H329.875V217.59C329.888 217.363 329.99 217.151 330.159 216.999C330.328 216.848 330.55 216.769 330.777 216.781H338.214C341.704 216.781 344.249 213.816 343.376 210.778L332.626 173.47H334.558L345.527 211.86C345.737 212.649 345.763 213.476 345.603 214.277C345.442 215.078 345.1 215.831 344.602 216.478C344.104 217.125 343.464 217.649 342.731 218.009C341.998 218.37 341.193 218.557 340.376 218.556Z" fill="white"/>
<path d="M332.625 173.47V194.05H338.554L332.625 173.47Z" fill="#161D56"/>
<path d="M297.894 186.783H291.962L291.508 188.43H297.44L297.894 186.783Z" fill="#161D56"/>
<path d="M310.155 186.783H304.677L304.227 188.43H309.701L310.155 186.783Z" fill="#161D56"/>
<path d="M366.039 219.394C369.656 219.394 372.301 216.707 371.392 213.555L359.844 173.489" stroke="#161D56" stroke-width="1.06501" stroke-miterlimit="10"/>
<path d="M307.188 187.607H310.084C310.565 187.607 311.027 187.798 311.367 188.138C311.707 188.478 311.898 188.94 311.898 189.421V244.046C311.898 245.351 312.417 246.604 313.341 247.527C314.264 248.451 315.516 248.969 316.822 248.969C318.128 248.968 319.379 248.449 320.302 247.526C321.224 246.603 321.743 245.351 321.743 244.046V219.632C321.743 219.394 321.696 219.158 321.605 218.938C321.513 218.718 321.38 218.519 321.211 218.35C321.043 218.182 320.843 218.049 320.623 217.958C320.402 217.867 320.167 217.821 319.929 217.821H317.263" stroke="#639AD6" stroke-width="1.06501" stroke-miterlimit="10"/>
<path d="M78.3063 198.622H63.6446C61.882 198.622 60.4531 200.05 60.4531 201.813V216.475C60.4531 218.237 61.882 219.666 63.6446 219.666H78.3063C80.0689 219.666 81.4978 218.237 81.4978 216.475V201.813C81.4978 200.05 80.0689 198.622 78.3063 198.622Z" fill="#000A78"/>
<path d="M69.8863 198.622C69.8863 198.622 67.2735 179.14 86.3621 173.616C86.3621 173.616 78.1224 181.735 75.6125 198.622H69.8863Z" fill="#7F2A3C"/>
<path d="M73.2425 198.622C73.2425 198.622 70.9704 181.55 55.7266 180.407C55.7266 180.407 65.3117 184.422 65.4217 198.622H73.2425Z" fill="#7F2A3C"/>
<path d="M68.0964 198.623C68.0964 198.623 66.1262 184.738 72.7115 178.135C72.7115 178.135 71.0714 190.074 73.2476 198.623H68.0964Z" fill="#7F2A3C"/>
<path d="M70.9766 198.622C70.9766 198.622 77.4341 195.015 77.0116 188.38C77.0116 188.38 80.6469 194.288 77.7571 198.622H70.9766Z" fill="#7F2A3C"/>
<path d="M64.187 198.623C64.187 198.623 62.3551 193.408 57.8359 191.8C57.8359 191.8 66.072 191.583 68.0814 198.623H64.187Z" fill="#7F2A3C"/>
<path d="M203.141 112.558L206.055 118.238L203.584 119.843" fill="#A57574"/>
<path d="M203.141 112.558L206.055 118.238L203.584 119.843" stroke="#4E2556" stroke-width="1.06501" stroke-linecap="round" stroke-linejoin="round"/>
<path d="M31.1073 98.9878H149.444V109.823L31.086 99.8221C30.77 99.7901 30.7913 98.9878 31.1073 98.9878Z" fill="#EBF4F7"/>
<path d="M136.673 45.3989H131.695C130.686 45.3989 129.867 46.2175 129.867 47.2272V87.9995C129.867 89.0092 130.686 89.8277 131.695 89.8277H136.673C137.682 89.8277 138.501 89.0092 138.501 87.9995V47.2272C138.501 46.2175 137.682 45.3989 136.673 45.3989Z" fill="white" stroke="#242854" stroke-width="1.06501" stroke-miterlimit="10"/>
<path d="M127.564 49.1597H121.622C120.635 49.1597 119.836 49.9591 119.836 50.9453V88.9237C119.836 89.9099 120.635 90.7094 121.622 90.7094H127.564C128.551 90.7094 129.35 89.9099 129.35 88.9237V50.9453C129.35 49.9591 128.551 49.1597 127.564 49.1597Z" fill="#000A78"/>
<path d="M118.168 39.0698H116.563C115.644 39.0698 114.898 39.8153 114.898 40.7348V89.0438C114.898 89.9633 115.644 90.7088 116.563 90.7088H118.168C119.088 90.7088 119.833 89.9633 119.833 89.0438V40.7348C119.833 39.8153 119.088 39.0698 118.168 39.0698Z" fill="#7F2A3C"/>
<path d="M112.716 52.1655H108.442C107.434 52.1655 106.617 52.9825 106.617 53.9902V88.3547C106.617 89.3624 107.434 90.1794 108.442 90.1794H112.716C113.724 90.1794 114.541 89.3624 114.541 88.3547V53.9902C114.541 52.9825 113.724 52.1655 112.716 52.1655Z" fill="white" stroke="#242854" stroke-width="1.06501" stroke-miterlimit="10"/>
<path d="M91.8764 90.7094H84.9609L102.26 44.3565C102.327 44.1764 102.447 44.021 102.604 43.9107C102.762 43.8004 102.949 43.7404 103.141 43.7388H108.047C108.2 43.7415 108.351 43.781 108.486 43.854C108.621 43.927 108.737 44.0315 108.823 44.1585C108.909 44.2854 108.964 44.4313 108.982 44.5838C109 44.7362 108.981 44.8908 108.927 45.0345L91.8764 90.7094Z" fill="#000A78"/>
<path d="M149.104 90.7075H31.3672V98.475H149.104V90.7075Z" fill="white" stroke="#242854" stroke-width="1.06501" stroke-miterlimit="10"/>
<path d="M43.2457 73.4888H72.9631V76.7513C72.9631 80.4543 71.4921 84.0057 68.8737 86.6241C66.2552 89.2425 62.7039 90.7136 59.0008 90.7136H57.2045C53.5015 90.7136 49.9501 89.2425 47.3317 86.6241C44.7132 84.0057 43.2422 80.4543 43.2422 76.7513V73.4888H43.2457Z" fill="#000A78"/>
<path d="M69.9902 73.4887H47.98C47.98 73.4887 41.5437 78.7392 37.8659 74.433C35.2034 71.3161 47.9445 71.1741 47.9445 71.1741L48.3279 71.0427C48.3279 71.0427 42.8608 59.569 48.0261 57.6555C51.5939 56.3278 52.4566 66.0514 52.6412 69.2073C54.5192 68.4228 58.1863 67.2903 58.4988 70.2724C58.4988 70.2724 58.907 57.9928 64.051 59.1643C68.3111 60.1405 61.9849 71.6817 61.9849 71.6817L62.4322 71.9515C62.4322 71.9515 74.1828 63.3675 77.0655 65.3626C79.2452 66.8714 69.9902 73.4887 69.9902 73.4887Z" fill="#7F2A3C"/>
<path d="M51.3438 73.489C51.3438 73.489 51.571 62.9028 55.5576 63.1939C59.5443 63.485 53.9885 73.489 53.9885 73.489H51.3438Z" fill="#7F2A3C"/>
<path d="M51.3572 73.4879C51.3572 73.4879 47.3598 63.4981 41.9424 66.0577C36.6493 68.5427 48.0343 73.4879 48.0343 73.4879H51.3572Z" fill="#7F2A3C"/>
<path d="M59.5547 73.4897C59.5547 73.4897 63.1544 64.4904 68.8345 65.3459C74.5146 66.2015 61.8054 73.4897 61.8054 73.4897H59.5547Z" fill="#7F2A3C"/>
<path d="M65.4141 73.4877C65.4141 73.4877 76.547 67.8822 78.5492 71.2618C80.5514 74.6414 65.4141 73.4877 65.4141 73.4877Z" fill="#7F2A3C"/>
</svg>
